<svg width="76" height="81" viewBox="0 0 76 81" fill="none" xmlns="http://www.w3.org/2000/svg">
<path d="M54 4.89707C55.3333 4.89707 56.02 4.2104 56.06 2.83707C56.12 1.07707 56.67 0.827069 59.81 1.08707C62.11 1.27707 63.41 1.86707 63.25 2.64707C63.11 3.33707 63.9 4.11707 65 4.39707C66.17 4.68707 67 5.72707 67 6.89707C67 8.2304 67.6667 8.89707 69 8.89707C70.3333 8.89707 71 9.56374 71 10.8971C71 12.2304 71.6667 12.8971 73 12.8971C74.62 12.8971 75 13.5671 75 16.3971C75 19.7271 74.83 19.8971 71.5 19.8971C68.67 19.8971 68 19.5171 68 17.8971C68 16.4171 67.42 15.9571 63.5 16.3971L63.25 44.1471C63.01 70.9571 62.93 71.9171 61 72.3971C59.9 72.6771 59.23 73.3471 59.5 73.8971C59.77 74.4471 59.1 75.1171 58 75.3971C56.83 75.6871 56 76.7271 56 77.8971C56 79.8471 55.33 79.8971 1 79.8971V71.8971H26.5C51.33 71.8971 52 71.8471 52 69.8971C52 68.5637 52.6667 67.8971 54 67.8971C55.95 67.8971 56 67.2271 56 41.8971C56 16.5671 55.95 15.8971 54 15.8971C52.6667 15.8971 52 16.5637 52 17.8971C52 19.5671 51.33 19.8971 48 19.8971C44.1 19.8971 44 19.8171 44 16.3971C44 13.5671 44.38 12.8971 46 12.8971C47.3333 12.8971 48 12.2304 48 10.8971C48 9.56374 48.6667 8.89707 50 8.89707C51.3333 8.89707 52 8.2304 52 6.89707C52 5.56374 52.6667 4.89707 54 4.89707Z" fill="white" stroke="black" stroke-width="2" stroke-linejoin="bevel"/>
</svg>
