<svg width="116" height="33" viewBox="0 0 116 33" fill="none" xmlns="http://www.w3.org/2000/svg">
<path d="M11 5C12.3333 5 13 4.33333 13 3C13 1.38 13.67 1 16.5 1C19.92 1 20 1.1 20 5C20 8.24 19.67 8.95 18.25 8.75C17.08 8.58 16.42 9.25 16 13H115V20H16V22.5C16 24.33 16.53 25 18 25C19.62 25 20 25.67 20 28.5C20 31.83 19.83 32 16.5 32C13.67 32 13 31.62 13 30C13 28.6667 12.3333 28 11 28C9.66667 28 9 27.3333 9 26C9 24.6667 8.33333 24 7 24C5.66667 24 5 23.3333 5 22C5 20.6667 4.33333 20 3 20C1.38 20 1 19.33 1 16.5C1 13.67 1.38 13 3 13C4.33333 13 5 12.3333 5 11C5 9.66667 5.66667 9 7 9C8.33333 9 9 8.33333 9 7C9 5.66667 9.66667 5 11 5Z" fill="white" stroke="black" stroke-width="2"/>
</svg>
