<svg width="265" height="299" viewBox="0 0 265 299" fill="none" xmlns="http://www.w3.org/2000/svg">
<mask id="mask0_31_296" style="mask-type:luminance" maskUnits="userSpaceOnUse" x="0" y="0" width="265" height="299">
<path d="M264.188 0.260504H0.355713V298.709H264.188V0.260504Z" fill="white"/>
</mask>
<g mask="url(#mask0_31_296)">
<path d="M264.188 0.260513H0.355713V298.709H264.188V0.260513Z" fill="#186A3B"/>
<path d="M0.355721 205.155C14.8379 212.527 30.2913 214.409 43.4345 195.244C57.1926 175.181 68.1503 139.481 73.8833 97.9357C79.4932 57.2828 79.5168 10.6316 74.6281 -30.802C70.1475 -68.7753 58.54 -93.7805 48.1461 -120.195C39.056 -143.297 29.0145 -160.22 18.0147 -174.678C5.32016 -191.363 -7.11292 -215.068 -20.9744 -211.046C-35.8838 -206.719 -50.8233 -186.335 -60.0605 -152.019C-69.1603 -118.214 -68.8053 -71.9468 -69.9405 -29.1393C-71.0072 11.0862 -73.275 53.8832 -66.452 89.0089C-59.7996 123.256 -45.6208 135.639 -34.013 155.82C-22.8203 175.278 -12.4885 198.617 0.355721 205.155Z" fill="#12502C"/>
<path d="M264.188 662.255C287.897 677.895 314.57 656.889 333.598 612.876C352.088 570.109 359.494 498.77 364.023 431.331C367.895 373.673 363.492 315.692 357.313 259.761C351.935 211.091 340.748 172.949 330.815 130.774C319.471 82.6046 312.17 24.3214 294.879 -5.33525C275.422 -38.7076 251.299 -62.1545 229.735 -42.5944C208.227 -23.0849 197.509 44.0356 183.605 95.5994C170.399 144.57 150.777 188.936 150.518 251.17C150.262 312.955 170.869 355.414 182.309 407.477C191.95 451.349 200.212 494.91 212.436 532.947C228.287 582.269 241.551 647.322 264.188 662.255Z" fill="#1E854A"/>
</g>
</svg>
