<svg width="36" height="36" viewBox="0 0 36 36" fill="none" xmlns="http://www.w3.org/2000/svg">
<circle cx="18.2353" cy="18.4062" r="16.4286" fill="white" stroke="#FF0000" stroke-width="1.98319"/>
<path d="M14.1405 27.3827C13.8344 27.1415 13.4818 26.8446 13.0829 26.4921C12.684 26.1303 12.2944 25.7546 11.914 25.3649C11.5429 24.9753 11.2275 24.6089 10.9678 24.2656C11.1069 24.1265 11.3249 23.9085 11.6218 23.6116C11.9187 23.3147 12.2573 22.9715 12.6376 22.5818C13.018 22.1829 13.4169 21.7655 13.8344 21.3295C14.2518 20.8934 14.66 20.4667 15.0589 20.0492C15.4578 19.6318 15.815 19.256 16.1304 18.9221C15.4717 18.1892 14.8734 17.5305 14.3353 16.9461C13.8065 16.3616 13.3334 15.8468 12.9159 15.4015C12.4985 14.9469 12.1274 14.5526 11.8027 14.2186C11.4873 13.8754 11.209 13.5739 10.9678 13.3141C11.042 13.2214 11.2182 13.0544 11.4966 12.8132C11.7841 12.572 12.1135 12.3122 12.4846 12.0339C12.8649 11.7463 13.2314 11.4773 13.5839 11.2268C13.9364 10.9763 14.2147 10.7954 14.4188 10.6841C14.6786 10.9531 15.0033 11.3149 15.3929 11.7695C15.7918 12.2241 16.2046 12.7111 16.6314 13.2306C17.0674 13.7501 17.4709 14.2511 17.842 14.7335C18.2131 15.2159 18.5146 15.6148 18.7465 15.9302C19.2846 15.1603 19.8134 14.3578 20.3329 13.5229C20.8524 12.6879 21.409 11.7556 22.0028 10.7258C22.6707 11.0227 23.3897 11.3752 24.1597 11.7834C24.9389 12.1823 25.5744 12.5349 26.0661 12.841C25.7692 13.3605 25.361 13.9914 24.8415 14.7335C24.322 15.4757 23.7654 16.2271 23.1717 16.9878C22.5779 17.7393 22.012 18.4072 21.474 18.9917C21.845 19.4369 22.2022 19.8869 22.5455 20.3415C22.8887 20.796 23.232 21.2645 23.5752 21.7469C23.9185 22.22 24.271 22.7164 24.6328 23.2359C25.0039 23.7554 25.3889 24.3027 25.7878 24.8779C25.259 25.2954 24.6652 25.6989 24.0066 26.0885C23.3479 26.4782 22.7078 26.8446 22.0862 27.1879C21.8636 26.8817 21.6363 26.571 21.4044 26.2555C21.1817 25.9308 20.9545 25.6061 20.7225 25.2815C20.4906 24.9568 20.254 24.6321 20.0128 24.3074C19.7716 23.9827 19.5258 23.6626 19.2753 23.3472C19.0341 23.0318 18.7883 22.721 18.5378 22.4149C18.1203 22.9436 17.7353 23.4261 17.3828 23.8621C17.0396 24.2981 16.7149 24.6924 16.4087 25.0449C16.1026 25.3881 15.815 25.7036 15.546 25.9911C15.2769 26.2787 15.0265 26.5385 14.7945 26.7704C14.5719 26.9931 14.3539 27.1971 14.1405 27.3827Z" fill="#FF0000"/>
</svg>
