<svg width="238" height="178" viewBox="0 0 238 178" fill="none" xmlns="http://www.w3.org/2000/svg">
<path d="M44.0496 41.4502C44.1096 39.0403 44.37 38.9102 48.7996 39.2002C52.8194 39.4602 53.53 39.83 53.74 41.7598C53.9067 43.2598 54.6567 44.0098 55.99 44.0098C57.4599 44.0098 57.9899 44.67 57.99 46.5098C57.99 48.5098 58.49 49.0098 60.49 49.0098C62.3299 49.0098 62.9899 49.5399 62.99 51.0098C62.99 52.2698 63.82 53.1902 65.24 53.4902C66.48 53.7602 68.96 53.9902 70.74 53.9902C72.53 54.0002 74.67 53.7798 75.49 53.5098C76.32 53.2297 76.99 52.1097 76.99 51.0098C76.9901 49.5399 77.6601 49.0098 79.49 49.0098C81.49 49.0098 81.99 48.5098 81.99 46.5098C81.99 44.67 82.5301 44.0098 83.99 44.0098C85.46 44.0098 85.99 43.3398 85.99 41.5098C85.99 39.16 86.2802 39.0198 90.74 39.2598C94.8398 39.4698 95.53 39.82 95.74 41.7598C95.96 43.7198 96.57 44.0098 104.99 44.0098V68.0098H107.49C109.33 68.0098 109.99 68.5399 109.99 70.0098C109.99 71.8698 110.74 72.0198 132.49 72.5098L132.74 77.2598C132.97 81.5898 133.21 82.0098 135.49 82.0098C137.79 82.0098 137.99 82.37 137.99 86.5098C137.99 90.6398 137.79 91.0098 135.49 91.0098C133.49 91.0098 132.99 91.51 132.99 93.5098C132.99 95.5098 132.49 96.0098 130.49 96.0098C128.49 96.0098 127.99 96.51 127.99 98.5098C127.99 100.34 127.46 101.01 125.99 101.01C124.19 101.01 123.99 101.67 123.99 108.01C123.99 114.34 124.19 115.01 125.99 115.01C127.323 115.01 128.073 115.76 128.24 117.26C128.396 118.666 129.138 119.486 130.467 119.721L131.013 119.799C132.253 120.018 132.982 120.747 133.201 121.986L133.279 122.533C133.513 123.861 134.334 124.604 135.74 124.76C137.71 124.98 137.99 125.58 137.99 129.51C137.99 133.64 137.79 134.01 135.49 134.01C133.2 134.01 132.99 134.37 132.99 143.01H109.99V145.51C109.99 147.51 109.49 148.01 104.99 148.01V172.01H100.49C96.6602 172.01 95.9901 172.3 95.99 174.01C95.99 175.74 95.33 176.01 90.99 176.01C86.66 176.01 85.99 175.74 85.99 174.01C85.9899 172.677 85.3232 172.01 83.99 172.01C82.53 172.01 81.99 171.34 81.99 169.51C81.9899 167.51 81.4899 167.01 79.49 167.01C77.49 167.01 76.99 166.51 76.99 164.51C76.99 162.08 76.7898 162.01 69.99 162.01C63.1902 162.01 62.99 162.08 62.99 164.51C62.99 166.51 62.49 167.01 60.49 167.01C58.4901 167.01 57.99 167.51 57.99 169.51C57.99 171.34 57.46 172.01 55.99 172.01C54.6567 172.01 53.9901 172.677 53.99 174.01C53.99 175.74 53.33 176.01 48.99 176.01C44.66 176.01 43.99 175.74 43.99 174.01C43.9899 172.3 43.3296 172.01 34.99 172.01V148.01H32.49C30.49 148.01 29.99 147.51 29.99 143.01H6.98999V138.51C6.98998 134.37 6.78995 134.01 4.48999 134.01C2.13999 134.01 2.00999 133.72 2.23999 129.26C2.45999 125.16 2.80003 124.47 4.73999 124.26C6.14632 124.104 6.89339 123.435 6.9812 122.253L6.99878 121.767C7.08675 120.585 7.83383 119.916 9.23999 119.76C10.74 119.593 11.5733 118.76 11.74 117.26C11.9067 115.76 12.6567 115.01 13.99 115.01C15.8 115.01 15.99 114.34 15.99 108.01C15.99 101.67 15.8 101.01 13.99 101.01C12.6567 101.01 11.9067 100.26 11.74 98.7598C11.5837 97.3536 10.8415 96.5332 9.51343 96.2988L8.96655 96.2207C7.72692 96.0019 6.99775 95.2729 6.77905 94.0332L6.70093 93.4863C6.4665 92.1584 5.64616 91.416 4.23999 91.2598C2.28001 91.0398 1.98999 90.4297 1.98999 86.5098C1.99 82.37 2.20004 82.0098 4.48999 82.0098C6.82999 82.0098 6.98999 81.6698 6.98999 72.0098H18.49C29.33 72.0098 29.99 71.8898 29.99 70.0098C29.9901 68.5399 30.6602 68.0098 34.99 68.0098V44.0098H39.49C43.6399 44.0098 43.9995 43.81 44.0496 41.4502ZM57.9998 82V84.5C57.9998 86.33 57.4698 87 55.9998 87C54.6666 87.0001 53.9998 87.6667 53.9998 89C53.9998 90.3333 53.2498 91.0833 51.7498 91.25C50.2499 91.4167 49.4164 92.2501 49.2498 93.75C49.0598 95.42 48.3497 96 46.4998 96H43.9998V120C48.3298 120 48.9998 120.53 48.9998 122C48.9998 123.333 49.7499 124.083 51.2498 124.25C52.7497 124.417 53.5831 125.25 53.7498 126.75C53.9164 128.25 54.6666 129 55.9998 129C57.4698 129 57.9998 129.67 57.9998 131.5V134H81.9998C81.9998 129.67 82.5299 129 83.9998 129C85.3331 129 85.9998 128.333 85.9998 127C85.9998 125.75 86.7323 124.939 88.197 124.568L88.8025 124.432C90.2675 124.061 90.9998 123.25 90.9998 122C90.9998 120.53 91.6699 120 93.4998 120H95.9998V96C91.9222 96 91.0433 95.4903 90.7927 94.0508L90.7107 93.4766C90.4763 92.1485 89.656 91.4062 88.2498 91.25C86.7499 91.0833 85.9998 90.3333 85.9998 89C85.9998 87.6667 85.3331 87 83.9998 87C82.5299 86.9999 81.9998 86.3299 81.9998 84.5V82H57.9998ZM198.49 2.00977C202.33 2.00977 202.99 2.29998 202.99 4.00977C202.99 5.70977 203.66 6.00977 207.49 6.00977C211.63 6.00977 211.99 6.21 211.99 8.50977C211.99 10.5098 212.49 11.0098 214.49 11.0098C216.79 11.0098 216.99 11.37 216.99 15.5098C216.99 19.4297 216.71 20.0398 214.74 20.2598C212.65 20.4898 212.49 20.99 212.49 27.5098C212.49 34.0297 212.65 34.5198 214.74 34.7598C216.146 34.916 216.893 35.5851 216.981 36.7666L216.999 37.2529C217.087 38.4347 217.834 39.1035 219.24 39.2598C220.74 39.4264 221.573 40.2599 221.74 41.7598C221.98 43.8498 222.48 44.0098 235.99 44.0098V68.0098H228.99C222.66 68.0098 221.99 68.2 221.99 70.0098C221.99 71.4698 221.33 72.0098 219.49 72.0098C217.49 72.0098 216.99 72.51 216.99 74.5098C216.99 76.3598 216.41 77.0698 214.74 77.2598C212.65 77.4898 212.49 77.99 212.49 84.5098C212.49 91.0297 212.65 91.5198 214.74 91.7598C216.71 91.9798 216.99 92.58 216.99 96.5098C216.99 100.64 216.79 101.01 214.49 101.01C212.49 101.01 211.99 101.51 211.99 103.51C211.99 105.8 211.63 106.01 207.49 106.01C203.66 106.01 202.99 106.3 202.99 108.01C202.99 109.71 202.33 110.01 193.99 110.01V105.51C193.99 101.37 193.79 101.01 191.49 101.01C189.49 101.01 188.99 100.51 188.99 98.5098C188.99 96.02 188.96 96.0098 179.49 96.0098C174.271 96.0098 170.052 96.3399 170.11 96.7598C170.18 97.1697 170.18 98.2898 170.11 99.2598C170.04 100.3 169.19 101.01 167.99 101.01C166.29 101.01 165.99 101.67 165.99 110.01H160.99C156.66 110.01 155.99 109.74 155.99 108.01C155.99 106.36 155.24 105.96 151.74 105.76C148.17 105.55 147.46 105.15 147.24 103.26C147.073 101.76 146.24 100.926 144.74 100.76C142.78 100.54 142.49 99.9297 142.49 96.0098C142.49 92.08 142.78 91.4798 144.74 91.2598C146.9 91.0198 146.99 90.6197 146.99 81.5098C146.99 72.04 146.99 72.0098 144.49 72.0098C142.66 72.0098 141.99 71.4698 141.99 70.0098C141.99 68.16 141.329 68.0098 123.99 68.0098V44.0098H130.99C137.79 44.0098 137.99 43.9398 137.99 41.5098C137.99 39.67 138.53 39.0098 139.99 39.0098C141.323 39.0098 141.99 38.3431 141.99 37.0098C141.99 35.5399 142.66 35.0098 144.49 35.0098C146.95 35.0098 146.99 34.8898 146.74 27.7598C146.51 21.06 146.32 20.4898 144.24 20.2598C142.28 20.0398 141.99 19.4297 141.99 15.5098C141.99 11.37 142.2 11.0098 144.49 11.0098C146.49 11.0098 146.99 10.5098 146.99 8.50977C146.99 6.21 147.36 6.00977 151.49 6.00977C155.33 6.00977 155.99 5.70977 155.99 4.00977C155.99 2.26999 156.66 2.00977 165.99 2.00977V6.50977C165.99 10.3398 166.29 11.0098 167.99 11.0098C169.323 11.0098 170.073 11.7599 170.24 13.2598C170.48 15.3898 170.98 15.5198 188.99 16.0098V13.5098C188.99 11.51 189.49 11.0098 191.49 11.0098C193.79 11.0098 193.99 10.6398 193.99 2.00977H198.49ZM180.17 39C175.31 39 170.96 39.2999 170.5 39.6699C170.04 40.03 169.74 41.16 169.83 42.1699C169.943 43.3899 169.333 44 168 44C166.14 44.0001 166 44.6704 166 53.5C166 62.3296 166.14 62.9999 168 63C169.333 63 170.083 63.75 170.25 65.25C170.49 67.38 170.98 67.51 179.75 67.75L189 68C189 63.5002 189.5 63 191.5 63C193.99 63 194 62.97 194 53.5C194 44.03 193.99 44 191.5 44C189.5 44 189 43.4999 189 41.5C189 39.02 188.92 39 180.17 39Z" fill="#F7FAFA"/>
<path d="M44.0496 41.4502L42.55 41.4129L42.5499 41.4184L44.0496 41.4502ZM48.7996 39.2002L48.7016 40.697L48.7027 40.6971L48.7996 39.2002ZM53.74 41.7598L52.2488 41.9221L52.2492 41.9254L53.74 41.7598ZM57.99 46.5098L59.49 46.5098L59.49 46.5097L57.99 46.5098ZM62.99 51.0098L64.49 51.0098L64.49 51.0097L62.99 51.0098ZM65.24 53.4902L65.5591 52.0245L65.55 52.0226L65.24 53.4902ZM70.74 53.9902L70.7484 52.4902H70.74V53.9902ZM75.49 53.5098L75.9591 54.9346L75.9695 54.931L75.49 53.5098ZM76.99 51.0098L75.49 51.0097V51.0098H76.99ZM81.99 46.5098L80.49 46.5097V46.5098H81.99ZM85.99 41.5098L84.49 41.5098V41.5098H85.99ZM90.74 39.2598L90.6594 40.7576L90.6633 40.7578L90.74 39.2598ZM95.74 41.7598L94.2487 41.9212L94.2494 41.9271L95.74 41.7598ZM104.99 44.0098H106.49V42.5098H104.99V44.0098ZM104.99 68.0098H103.49V69.5098H104.99V68.0098ZM109.99 70.0098L111.49 70.0098L111.49 70.0097L109.99 70.0098ZM132.49 72.5098L133.988 72.4309L133.915 71.0415L132.524 71.0101L132.49 72.5098ZM132.74 77.2598L131.242 77.3386L131.242 77.3393L132.74 77.2598ZM137.99 86.5098L139.49 86.5098L139.49 86.5098L137.99 86.5098ZM132.99 93.5098L131.49 93.5097V93.5098H132.99ZM127.99 98.5098L126.49 98.5097V98.5098H127.99ZM123.99 108.01L122.49 108.01V108.01H123.99ZM128.24 117.26L129.731 117.094L129.731 117.094L128.24 117.26ZM130.467 119.721L130.206 121.198L130.23 121.202L130.254 121.206L130.467 119.721ZM131.013 119.799L131.274 118.322L131.25 118.317L131.226 118.314L131.013 119.799ZM133.201 121.986L134.686 121.774L134.682 121.75L134.678 121.726L133.201 121.986ZM133.279 122.533L131.794 122.745L131.798 122.77L131.802 122.794L133.279 122.533ZM135.74 124.76L135.906 123.269L135.906 123.269L135.74 124.76ZM137.99 129.51L139.49 129.51L139.49 129.51L137.99 129.51ZM132.99 143.01V144.51H134.49L134.49 143.01L132.99 143.01ZM109.99 143.01V141.51H108.49V143.01H109.99ZM104.99 148.01V146.51H103.49V148.01H104.99ZM104.99 172.01V173.51H106.49V172.01H104.99ZM95.99 174.01L94.49 174.01V174.01H95.99ZM85.99 174.01L87.49 174.01L87.49 174.01L85.99 174.01ZM81.99 169.51L83.49 169.51L83.49 169.51L81.99 169.51ZM76.99 164.51L78.49 164.51L78.49 164.51L76.99 164.51ZM62.99 164.51L61.49 164.51V164.51H62.99ZM57.99 169.51L56.49 169.51V169.51H57.99ZM53.99 174.01L52.49 174.01V174.01H53.99ZM43.99 174.01L45.49 174.01L45.49 174.01L43.99 174.01ZM34.99 172.01H33.49V173.51H34.99V172.01ZM34.99 148.01H36.49V146.51H34.99V148.01ZM29.99 143.01H31.49V141.51H29.99V143.01ZM6.98999 143.01H5.48999V144.51H6.98999V143.01ZM6.98999 138.51L8.48999 138.51L8.48999 138.51L6.98999 138.51ZM2.23999 129.26L0.742142 129.179L0.741981 129.183L2.23999 129.26ZM4.73999 124.26L4.90142 125.751L4.90564 125.751L4.73999 124.26ZM6.9812 122.253L8.47708 122.364L8.47919 122.336L8.48022 122.307L6.9812 122.253ZM6.99878 121.767L5.50292 121.655L5.50079 121.684L5.49976 121.712L6.99878 121.767ZM9.23999 119.76L9.40564 121.251L9.40564 121.251L9.23999 119.76ZM11.74 117.26L10.2492 117.094L10.2492 117.094L11.74 117.26ZM15.99 108.01L17.49 108.01L17.49 108.01L15.99 108.01ZM11.74 98.7598L13.2308 98.5941L13.2308 98.594L11.74 98.7598ZM9.51343 96.2988L9.77409 94.8216L9.74989 94.8174L9.72556 94.8139L9.51343 96.2988ZM8.96655 96.2207L8.70586 97.6979L8.73008 97.7021L8.75442 97.7056L8.96655 96.2207ZM6.77905 94.0332L5.29413 94.2453L5.2976 94.2696L5.30186 94.2938L6.77905 94.0332ZM6.70093 93.4863L8.18585 93.2742L8.18237 93.2498L8.17809 93.2256L6.70093 93.4863ZM4.23999 91.2598L4.07267 92.7504L4.07435 92.7506L4.23999 91.2598ZM1.98999 86.5098L0.48999 86.5098V86.5098H1.98999ZM6.98999 72.0098V70.5098H5.48999V72.0098H6.98999ZM29.99 70.0098L28.49 70.0097V70.0098H29.99ZM34.99 68.0098V69.5098H36.49V68.0098H34.99ZM34.99 44.0098V42.5098H33.49V44.0098H34.99ZM57.9998 82V80.5H56.4998V82H57.9998ZM55.9998 87L55.9998 85.5L55.9997 85.5L55.9998 87ZM51.7498 91.25L51.5841 89.7592L51.584 89.7592L51.7498 91.25ZM49.2498 93.75L50.7401 93.9196L50.7406 93.9156L49.2498 93.75ZM43.9998 96V94.5H42.4998V96H43.9998ZM43.9998 120H42.4998V121.5H43.9998V120ZM51.2498 124.25L51.084 125.741L51.0841 125.741L51.2498 124.25ZM53.7498 126.75L55.2406 126.584L55.2406 126.584L53.7498 126.75ZM55.9998 129L55.9997 130.5H55.9998V129ZM57.9998 134H56.4998V135.5H57.9998V134ZM81.9998 134V135.5H83.4998V134H81.9998ZM83.9998 129L83.9998 127.5L83.9997 127.5L83.9998 129ZM88.197 124.568L87.8666 123.105L87.8476 123.11L87.8286 123.114L88.197 124.568ZM88.8025 124.432L89.1329 125.895L89.1519 125.891L89.1708 125.886L88.8025 124.432ZM93.4998 120L93.4998 118.5L93.4997 118.5L93.4998 120ZM95.9998 120V121.5H97.4998V120H95.9998ZM95.9998 96H97.4998V94.5L95.9998 94.5L95.9998 96ZM90.7927 94.0508L89.3078 94.2629L89.311 94.2855L89.3149 94.308L90.7927 94.0508ZM90.7107 93.4766L92.1956 93.2644L92.1921 93.2401L92.1879 93.2159L90.7107 93.4766ZM88.2498 91.25L88.084 92.7408L88.0841 92.7408L88.2498 91.25ZM83.9998 87L83.9997 88.5H83.9998V87ZM81.9998 82H83.4998V80.5H81.9998V82ZM202.99 4.00977L204.49 4.00977L204.49 4.00971L202.99 4.00977ZM211.99 8.50977L213.49 8.50977L213.49 8.50975L211.99 8.50977ZM216.99 15.5098L218.49 15.5098L218.49 15.5098L216.99 15.5098ZM214.74 20.2598L214.904 21.7508L214.906 21.7505L214.74 20.2598ZM212.49 27.5098L210.99 27.5098V27.5098H212.49ZM214.74 34.7598L214.569 36.25L214.574 36.2506L214.74 34.7598ZM216.981 36.7666L218.48 36.7124L218.479 36.6838L218.477 36.6552L216.981 36.7666ZM216.999 37.2529L215.5 37.3071L215.501 37.3356L215.503 37.3641L216.999 37.2529ZM219.24 39.2598L219.074 40.7506L219.074 40.7506L219.24 39.2598ZM221.74 41.7598L220.249 41.9255L220.25 41.9309L221.74 41.7598ZM235.99 44.0098H237.49V42.5098H235.99V44.0098ZM235.99 68.0098V69.5098H237.49V68.0098H235.99ZM221.99 70.0098L220.49 70.0097V70.0098H221.99ZM216.99 74.5098L215.49 74.5097V74.5098H216.99ZM214.74 77.2598L214.904 78.7508L214.91 78.7501L214.74 77.2598ZM212.49 84.5098L210.99 84.5098V84.5098H212.49ZM214.74 91.7598L214.569 93.25L214.574 93.2505L214.74 91.7598ZM216.99 96.5098L218.49 96.5098L218.49 96.5098L216.99 96.5098ZM211.99 103.51L210.49 103.51V103.51H211.99ZM202.99 108.01L201.49 108.01V108.01H202.99ZM193.99 110.01H192.49V111.51H193.99V110.01ZM193.99 105.51L195.49 105.51L195.49 105.51L193.99 105.51ZM188.99 98.5098L190.49 98.5098L190.49 98.5098L188.99 98.5098ZM170.11 96.7598L168.624 96.9667L168.628 96.9895L168.632 97.0122L170.11 96.7598ZM170.11 99.2598L168.614 99.1518L168.613 99.159L170.11 99.2598ZM165.99 110.01V111.51H167.49L167.49 110.01L165.99 110.01ZM155.99 108.01L157.49 108.01L157.49 108.01L155.99 108.01ZM151.74 105.76L151.652 107.257L151.654 107.257L151.74 105.76ZM147.24 103.26L145.749 103.425L145.75 103.433L147.24 103.26ZM144.74 100.76L144.573 102.25L144.574 102.251L144.74 100.76ZM142.49 96.0098L140.99 96.0098V96.0098H142.49ZM144.74 91.2598L144.574 89.7689L144.573 89.7691L144.74 91.2598ZM146.99 81.5098L148.49 81.5098L146.99 81.5098ZM141.99 70.0098L143.49 70.0098L143.49 70.0097L141.99 70.0098ZM123.99 68.0098H122.49V69.5098H123.99V68.0098ZM123.99 44.0098V42.5098H122.49V44.0098H123.99ZM137.99 41.5098L136.49 41.5097V41.5098H137.99ZM141.99 37.0098L140.49 37.0097V37.0098H141.99ZM146.74 27.7598L145.241 27.8112L145.241 27.8123L146.74 27.7598ZM144.24 20.2598L144.073 21.7504L144.075 21.7507L144.24 20.2598ZM141.99 15.5098L140.49 15.5098V15.5098H141.99ZM146.99 8.50977L145.49 8.50975V8.50977H146.99ZM155.99 4.00977L154.49 4.00971V4.00977H155.99ZM165.99 2.00977H167.49V0.509766H165.99V2.00977ZM170.24 13.2598L168.749 13.4255L168.749 13.4277L170.24 13.2598ZM188.99 16.0098L188.949 17.5092L190.49 17.5511V16.0098H188.99ZM188.99 13.5098L187.49 13.5097V13.5098H188.99ZM193.99 2.00977V0.509766H192.49V2.00977H193.99ZM180.17 39L180.17 37.5L180.17 37.5L180.17 39ZM170.5 39.6699L171.424 40.851L171.432 40.8449L171.44 40.8387L170.5 39.6699ZM169.83 42.1699L168.336 42.303L168.336 42.3087L169.83 42.1699ZM168 44L168 42.5L168 42.5L168 44ZM168 63L168 64.5H168V63ZM170.25 65.25L168.759 65.4157L168.759 65.418L170.25 65.25ZM179.75 67.75L179.709 69.2494L179.709 69.2495L179.75 67.75ZM189 68L188.959 69.4995L190.5 69.5411V68H189ZM191.5 63L191.5 61.5L191.5 61.5L191.5 63ZM191.5 44L191.5 45.5H191.5V44ZM44.0496 41.4502L45.5491 41.4875C45.5648 40.8561 45.5955 40.5924 45.633 40.4649C45.6355 40.4566 45.5642 40.6037 45.4296 40.6676C45.4145 40.6748 45.4538 40.6534 45.5942 40.6318C45.7335 40.6103 45.933 40.5944 46.2181 40.5904C46.7972 40.5823 47.5853 40.6239 48.7016 40.697L48.7996 39.2002L48.8975 37.7034C47.799 37.6315 46.8934 37.5806 46.1761 37.5907C45.4946 37.6002 44.766 37.6616 44.1424 37.9578C43.3815 38.3193 42.9569 38.9326 42.7553 39.6174C42.5887 40.183 42.5643 40.8393 42.55 41.4129L44.0496 41.4502ZM48.7996 39.2002L48.7027 40.6971C49.6981 40.7614 50.4386 40.8299 51.0014 40.9197C51.5753 41.0113 51.864 41.1108 52.0081 41.1855C52.105 41.2357 52.1034 41.2539 52.1099 41.2665C52.1432 41.3315 52.2028 41.4991 52.2488 41.9221L53.74 41.7598L55.2312 41.5975C55.1722 41.0555 55.0642 40.4533 54.7796 39.898C54.4681 39.2904 53.9983 38.8381 53.3888 38.5221C52.8265 38.2306 52.1708 38.0684 51.4743 37.9572C50.7667 37.8442 49.9109 37.7689 48.8964 37.7033L48.7996 39.2002ZM53.74 41.7598L52.2492 41.9254C52.3546 42.874 52.6674 43.8085 53.3668 44.5079C54.0912 45.2323 55.0333 45.5098 55.99 45.5098V44.0098V42.5098C55.6133 42.5098 55.5138 42.4123 55.4882 42.3866C55.4376 42.3361 55.2921 42.1456 55.2308 41.5941L53.74 41.7598ZM55.99 44.0098V45.5098C56.2565 45.5098 56.3812 45.5413 56.4227 45.5559C56.442 45.5627 56.4038 45.5493 56.3702 45.5073C56.348 45.4796 56.3832 45.5064 56.4213 45.6745C56.4604 45.8471 56.49 46.1122 56.49 46.5098L57.99 46.5098L59.49 46.5097C59.49 45.5313 59.3682 44.4518 58.7122 43.6324C57.9785 42.716 56.9142 42.5098 55.99 42.5098V44.0098ZM57.99 46.5098H56.49C56.49 47.499 56.5773 48.7184 57.4293 49.5704C58.2813 50.4224 59.5007 50.5098 60.49 50.5098V49.0098V47.5098C60.0354 47.5098 59.7641 47.4795 59.603 47.4412C59.4589 47.4069 59.4875 47.386 59.5507 47.4491C59.6138 47.5122 59.5929 47.5409 59.5586 47.3967C59.5202 47.2356 59.49 46.9644 59.49 46.5098H57.99ZM60.49 49.0098V50.5098C60.8876 50.5098 61.1527 50.5394 61.3252 50.5785C61.4933 50.6166 61.5201 50.6517 61.4924 50.6295C61.4504 50.5959 61.437 50.5577 61.4438 50.5771C61.4585 50.6186 61.49 50.7434 61.49 51.0098L62.99 51.0098L64.49 51.0097C64.4899 50.0856 64.2837 49.0213 63.3675 48.2877C62.548 47.6316 61.4685 47.5098 60.49 47.5098V49.0098ZM62.99 51.0098H61.49C61.49 51.988 61.8202 52.8987 62.4707 53.6169C63.1095 54.3223 63.9779 54.7567 64.9299 54.9578L65.24 53.4902L65.55 52.0226C65.0821 51.9238 64.8255 51.7479 64.6943 51.6031C64.5748 51.4711 64.49 51.2916 64.49 51.0098H62.99ZM65.24 53.4902L64.9209 54.9559C66.2948 55.255 68.8872 55.4902 70.74 55.4902V53.9902V52.4902C69.0328 52.4902 66.6652 52.2654 65.5591 52.0246L65.24 53.4902ZM70.74 53.9902L70.7316 55.4902C71.6851 55.4955 72.7213 55.4398 73.6306 55.3473C74.5014 55.2587 75.3822 55.1245 75.9591 54.9345L75.49 53.5098L75.0209 52.085C74.7778 52.165 74.1786 52.2761 73.3269 52.3627C72.5137 52.4454 71.5849 52.4949 70.7484 52.4903L70.74 53.9902ZM75.49 53.5098L75.9695 54.931C76.8244 54.6426 77.4476 53.9893 77.8378 53.3385C78.2384 52.6701 78.49 51.8507 78.49 51.0098H76.99H75.49C75.49 51.2688 75.4065 51.5594 75.2647 51.796C75.1123 52.0502 74.9856 52.0969 75.0104 52.0885L75.49 53.5098ZM76.99 51.0098L78.49 51.0098C78.49 50.7454 78.5217 50.6217 78.5362 50.5809C78.543 50.562 78.5298 50.5988 78.4895 50.6309C78.4634 50.6518 78.4916 50.6164 78.6594 50.5784C78.8316 50.5393 79.0955 50.5098 79.49 50.5098V49.0098V47.5098C78.5142 47.5098 77.4373 47.6323 76.6181 48.2862C75.7018 49.0176 75.49 50.0796 75.49 51.0097L76.99 51.0098ZM79.49 49.0098V50.5098C80.4793 50.5098 81.6986 50.4224 82.5507 49.5704C83.4027 48.7184 83.49 47.499 83.49 46.5098H81.99H80.49C80.49 46.9644 80.4598 47.2356 80.4214 47.3967C80.3871 47.5409 80.3662 47.5122 80.4293 47.4491C80.4925 47.386 80.5211 47.4069 80.3769 47.4412C80.2159 47.4795 79.9446 47.5098 79.49 47.5098V49.0098ZM81.99 46.5098L83.49 46.5098C83.49 46.1138 83.52 45.8496 83.5593 45.6779C83.5976 45.5108 83.633 45.4831 83.6117 45.5096C83.5793 45.5498 83.5427 45.5626 83.5623 45.5556C83.6036 45.541 83.7271 45.5098 83.99 45.5098V44.0098V42.5098C83.0676 42.5098 82.0069 42.7175 81.2734 43.6301C80.6157 44.4483 80.49 45.5265 80.49 46.5097L81.99 46.5098ZM83.99 44.0098V45.5098C84.9201 45.5098 85.9822 45.2981 86.7136 44.3817C87.3675 43.5624 87.49 42.4855 87.49 41.5098H85.99H84.49C84.49 41.9044 84.4605 42.1683 84.4214 42.3405C84.3833 42.5083 84.3479 42.5365 84.3689 42.5103C84.401 42.47 84.4379 42.4568 84.419 42.4636C84.3783 42.4781 84.2545 42.5098 83.99 42.5098V44.0098ZM85.99 41.5098L87.49 41.5098C87.49 40.8966 87.5167 40.6526 87.5475 40.5444C87.5548 40.5191 87.5442 40.5695 87.4863 40.6415C87.424 40.719 87.3584 40.758 87.3353 40.7689C87.3251 40.7737 87.3699 40.751 87.5156 40.7276C87.6599 40.7043 87.8642 40.6863 88.1532 40.6792C88.7398 40.6647 89.5368 40.6972 90.6594 40.7576L90.74 39.2598L90.8206 37.7619C89.7133 37.7023 88.8016 37.6623 88.0794 37.6801C87.3929 37.697 86.6673 37.7655 86.0498 38.0583C85.2947 38.4164 84.8616 39.0234 84.6625 39.7219C84.4996 40.2934 84.49 40.9481 84.49 41.5098L85.99 41.5098ZM90.74 39.2598L90.6633 40.7578C91.6797 40.8099 92.4347 40.8685 93.0078 40.9509C93.5932 41.0351 93.8842 41.1308 94.0269 41.2022C94.1188 41.2483 94.1096 41.2602 94.1117 41.2644C94.143 41.3254 94.2021 41.4908 94.2487 41.9212L95.74 41.7598L97.2313 41.5983C97.1729 41.0588 97.0669 40.4531 96.7816 39.8962C96.4672 39.2826 95.9898 38.8302 95.3705 38.5199C94.8018 38.2351 94.1385 38.0826 93.4348 37.9815C92.7189 37.8785 91.8502 37.8147 90.8167 37.7617L90.74 39.2598ZM95.74 41.7598L94.2494 41.9271C94.3061 42.4325 94.4101 43.1715 94.8799 43.819C95.3858 44.5164 96.1257 44.8688 96.9158 45.0723C97.6891 45.2716 98.6902 45.3735 99.9538 45.4322C101.236 45.4918 102.883 45.5098 104.99 45.5098V44.0098V42.5098C102.887 42.5098 101.3 42.4915 100.093 42.4354C98.8673 42.3785 98.1234 42.2855 97.6642 42.1672C97.2218 42.0532 97.2416 41.9656 97.3082 42.0574C97.3386 42.0993 97.2839 42.067 97.2306 41.5924L95.74 41.7598ZM104.99 44.0098H103.49V68.0098H104.99H106.49V44.0098H104.99ZM104.99 68.0098V69.5098H107.49V68.0098V66.5098H104.99V68.0098ZM107.49 68.0098V69.5098C107.888 69.5098 108.153 69.5394 108.325 69.5785C108.493 69.6166 108.52 69.6517 108.492 69.6295C108.45 69.5959 108.437 69.5577 108.444 69.5771C108.458 69.6186 108.49 69.7434 108.49 70.0098L109.99 70.0098L111.49 70.0097C111.49 69.0856 111.284 68.0213 110.367 67.2877C109.548 66.6316 108.469 66.5098 107.49 66.5098V68.0098ZM109.99 70.0098H108.49C108.49 70.2606 108.496 70.6828 108.646 71.1191C108.818 71.6186 109.138 72.0352 109.595 72.3504C110.008 72.6358 110.497 72.8139 111.005 72.9428C111.524 73.0746 112.155 73.1774 112.914 73.2639C115.907 73.605 121.623 73.7653 132.456 74.0094L132.49 72.5098L132.524 71.0101C121.607 70.7642 116.073 70.6045 113.254 70.2832C112.559 70.204 112.077 70.1198 111.743 70.0351C111.399 69.9476 111.296 69.8798 111.299 69.8819C111.346 69.9139 111.437 70.0097 111.483 70.1431C111.507 70.2133 111.49 70.224 111.49 70.0098H109.99ZM132.49 72.5098L130.992 72.5886L131.242 77.3386L132.74 77.2598L134.238 77.1809L133.988 72.4309L132.49 72.5098ZM132.74 77.2598L131.242 77.3393C131.299 78.4197 131.36 79.3166 131.46 80.036C131.558 80.7328 131.711 81.4278 132.048 82.0095C132.436 82.6811 133.005 83.0987 133.688 83.3097C134.273 83.4902 134.919 83.5098 135.49 83.5098V82.0098V80.5098C134.921 80.5098 134.682 80.4769 134.573 80.4432C134.542 80.4335 134.562 80.4354 134.6 80.4647C134.639 80.4955 134.652 80.521 134.645 80.5076C134.607 80.443 134.515 80.2211 134.432 79.6214C134.351 79.0442 134.295 78.2648 134.238 77.1802L132.74 77.2598ZM135.49 82.0098V83.5098C136.074 83.5098 136.321 83.5392 136.436 83.5723C136.448 83.5758 136.34 83.5231 136.291 83.4358C136.289 83.4322 136.314 83.4762 136.345 83.6079C136.375 83.7395 136.405 83.9268 136.429 84.1928C136.477 84.7341 136.49 85.4708 136.49 86.5098L137.99 86.5098L139.49 86.5098C139.49 85.4789 139.478 84.6182 139.417 83.9275C139.358 83.2638 139.241 82.5687 138.914 81.9789C138.528 81.2841 137.938 80.8826 137.266 80.6892C136.696 80.5254 136.056 80.5098 135.49 80.5098V82.0098ZM137.99 86.5098H136.49C136.49 87.5463 136.477 88.2818 136.429 88.8225C136.405 89.0883 136.375 89.2756 136.345 89.4075C136.314 89.5394 136.289 89.584 136.291 89.5812C136.338 89.496 136.445 89.4434 136.433 89.4468C136.319 89.4798 136.072 89.5098 135.49 89.5098V91.0098V92.5098C136.058 92.5098 136.698 92.4935 137.269 92.3281C137.941 92.133 138.53 91.7298 138.914 91.0358C139.241 90.4461 139.358 89.7515 139.417 89.088C139.478 88.3978 139.49 87.5383 139.49 86.5098H137.99ZM135.49 91.0098V89.5098C134.501 89.5098 133.281 89.5972 132.429 90.4492C131.577 91.3012 131.49 92.5205 131.49 93.5097L132.99 93.5098L134.49 93.5098C134.49 93.0553 134.52 92.784 134.559 92.623C134.593 92.4788 134.614 92.5074 134.551 92.5705C134.488 92.6336 134.459 92.6127 134.603 92.5784C134.764 92.54 135.035 92.5098 135.49 92.5098V91.0098ZM132.99 93.5098H131.49C131.49 93.9644 131.46 94.2356 131.421 94.3967C131.387 94.5409 131.366 94.5122 131.429 94.4491C131.492 94.386 131.521 94.4069 131.377 94.4412C131.216 94.4795 130.945 94.5098 130.49 94.5098V96.0098V97.5098C131.479 97.5098 132.699 97.4224 133.551 96.5704C134.403 95.7184 134.49 94.499 134.49 93.5098H132.99ZM130.49 96.0098V94.5098C129.501 94.5098 128.281 94.5972 127.429 95.4492C126.577 96.3012 126.49 97.5205 126.49 98.5097L127.99 98.5098L129.49 98.5098C129.49 98.0553 129.52 97.784 129.559 97.623C129.593 97.4788 129.614 97.5074 129.551 97.5705C129.488 97.6336 129.459 97.6127 129.603 97.5784C129.764 97.54 130.035 97.5098 130.49 97.5098V96.0098ZM127.99 98.5098H126.49C126.49 98.9044 126.46 99.1683 126.421 99.3405C126.383 99.5083 126.348 99.5365 126.369 99.5103C126.401 99.47 126.438 99.4568 126.419 99.4636C126.378 99.4781 126.255 99.5098 125.99 99.5098V101.01V102.51C126.92 102.51 127.982 102.298 128.714 101.382C129.368 100.562 129.49 99.4855 129.49 98.5098H127.99ZM125.99 101.01V99.5098C125.509 99.5098 124.8 99.5387 124.154 99.9212C123.431 100.349 123.07 101.034 122.873 101.718C122.685 102.373 122.599 103.195 122.551 104.168C122.502 105.162 122.49 106.425 122.49 108.01L123.99 108.01L125.49 108.01C125.49 106.425 125.503 105.228 125.548 104.315C125.593 103.381 125.67 102.85 125.757 102.546C125.835 102.273 125.861 102.397 125.682 102.503C125.58 102.563 125.571 102.51 125.99 102.51V101.01ZM123.99 108.01H122.49C122.49 109.592 122.502 110.854 122.551 111.848C122.599 112.82 122.685 113.642 122.873 114.297C123.069 114.981 123.43 115.666 124.151 116.095C124.798 116.48 125.507 116.51 125.99 116.51V115.01V113.51C125.573 113.51 125.582 113.456 125.685 113.517C125.863 113.623 125.836 113.745 125.757 113.47C125.67 113.166 125.593 112.634 125.548 111.7C125.503 110.788 125.49 109.592 125.49 108.01H123.99ZM125.99 115.01V116.51C126.367 116.51 126.466 116.607 126.492 116.633C126.542 116.684 126.688 116.874 126.749 117.425L128.24 117.26L129.731 117.094C129.625 116.146 129.313 115.211 128.613 114.512C127.889 113.787 126.947 113.51 125.99 113.51V115.01ZM128.24 117.26L126.749 117.425C126.852 118.354 127.167 119.235 127.802 119.936C128.442 120.644 129.287 121.036 130.206 121.198L130.467 119.721L130.727 118.244C130.318 118.171 130.128 118.036 130.026 117.923C129.919 117.805 129.784 117.572 129.731 117.094L128.24 117.26ZM130.467 119.721L130.254 121.206L130.801 121.284L131.013 119.799L131.226 118.314L130.679 118.236L130.467 119.721ZM131.013 119.799L130.753 121.276C131.137 121.344 131.326 121.468 131.429 121.57C131.532 121.673 131.656 121.863 131.724 122.247L133.201 121.986L134.678 121.726C134.527 120.871 134.177 120.075 133.551 119.449C132.924 118.823 132.129 118.473 131.274 118.322L131.013 119.799ZM133.201 121.986L131.716 122.198L131.794 122.745L133.279 122.533L134.764 122.321L134.686 121.774L133.201 121.986ZM133.279 122.533L131.802 122.794C131.964 123.712 132.356 124.558 133.064 125.198C133.765 125.833 134.646 126.147 135.574 126.251L135.74 124.76L135.906 123.269C135.428 123.216 135.195 123.081 135.076 122.974C134.964 122.872 134.829 122.682 134.756 122.273L133.279 122.533ZM135.74 124.76L135.574 126.25C136.029 126.301 136.201 126.359 136.263 126.389C136.278 126.397 136.265 126.392 136.246 126.373C136.228 126.354 136.231 126.349 136.248 126.385C136.294 126.483 136.37 126.727 136.422 127.28C136.472 127.818 136.49 128.533 136.49 129.51L137.99 129.51L139.49 129.51C139.49 128.522 139.473 127.688 139.409 127.002C139.346 126.33 139.23 125.673 138.96 125.102C138.66 124.467 138.198 123.997 137.583 123.695C137.037 123.428 136.436 123.328 135.906 123.269L135.74 124.76ZM137.99 129.51H136.49C136.49 130.546 136.477 131.282 136.429 131.822C136.405 132.088 136.375 132.276 136.345 132.407C136.314 132.539 136.289 132.584 136.291 132.581C136.338 132.496 136.445 132.443 136.433 132.447C136.319 132.48 136.072 132.51 135.49 132.51V134.01V135.51C136.058 135.51 136.698 135.493 137.269 135.328C137.941 135.133 138.53 134.73 138.914 134.036C139.241 133.446 139.358 132.752 139.417 132.088C139.478 131.398 139.49 130.538 139.49 129.51H137.99ZM135.49 134.01V132.51C134.969 132.51 134.173 132.509 133.469 132.856C132.616 133.277 132.178 134.033 131.94 134.853C131.718 135.622 131.616 136.632 131.56 137.892C131.503 139.178 131.49 140.852 131.49 143.01L132.99 143.01L134.49 143.01C134.49 140.848 134.503 139.236 134.557 138.025C134.612 136.788 134.706 136.087 134.822 135.687C134.923 135.337 134.967 135.462 134.798 135.546C134.777 135.556 134.866 135.51 135.49 135.51V134.01ZM132.99 143.01V141.51H109.99V143.01V144.51H132.99V143.01ZM109.99 143.01H108.49V145.51H109.99H111.49V143.01H109.99ZM109.99 145.51H108.49C108.49 145.987 108.453 146.171 108.429 146.24C108.424 146.254 108.429 146.234 108.454 146.206C108.478 146.177 108.49 146.176 108.459 146.193C108.368 146.243 108.11 146.34 107.498 146.41C106.905 146.478 106.099 146.51 104.99 146.51V148.01V149.51C106.131 149.51 107.075 149.479 107.841 149.391C108.589 149.305 109.3 149.152 109.896 148.827C110.564 148.462 111.013 147.923 111.254 147.249C111.464 146.661 111.49 146.032 111.49 145.51H109.99ZM104.99 148.01H103.49V172.01H104.99H106.49V148.01H104.99ZM104.99 172.01V170.51H100.49V172.01V173.51H104.99V172.01ZM100.49 172.01V170.51C99.524 170.51 98.7086 170.528 98.0372 170.588C97.3837 170.646 96.7457 170.754 96.1963 170.997C95.585 171.268 95.0861 171.707 94.791 172.351C94.5309 172.918 94.49 173.521 94.49 174.01L95.99 174.01L97.49 174.01C97.49 173.644 97.5329 173.569 97.5182 173.601C97.4684 173.709 97.3764 173.756 97.4114 173.74C97.5082 173.697 97.7559 173.625 98.3051 173.576C98.8365 173.528 99.5411 173.51 100.49 173.51V172.01ZM95.99 174.01H94.49C94.49 174.389 94.4452 174.448 94.4683 174.4C94.5314 174.269 94.636 174.235 94.5591 174.266C94.4214 174.322 94.1159 174.396 93.4857 174.445C92.8752 174.493 92.0693 174.51 90.99 174.51V176.01V177.51C92.0807 177.51 92.9848 177.493 93.7186 177.436C94.4328 177.38 95.106 177.279 95.6758 177.051C96.3065 176.798 96.8473 176.372 97.1698 175.704C97.4523 175.119 97.49 174.495 97.49 174.01H95.99ZM90.99 176.01V174.51C89.9133 174.51 89.1086 174.493 88.4986 174.445C87.869 174.396 87.5626 174.322 87.4238 174.266C87.3449 174.234 87.4485 174.267 87.5116 174.397C87.535 174.445 87.49 174.387 87.49 174.01H85.99H84.49C84.49 174.497 84.5287 175.122 84.8131 175.707C85.1371 176.375 85.6788 176.799 86.3087 177.051C86.8786 177.279 87.5516 177.38 88.2655 177.436C88.9989 177.493 89.9017 177.51 90.99 177.51V176.01ZM85.99 174.01L87.49 174.01C87.4899 173.112 87.2644 172.163 86.5506 171.449C85.8368 170.735 84.888 170.51 83.99 170.51V172.01V173.51C84.4253 173.51 84.4764 173.618 84.4292 173.57C84.3821 173.523 84.49 173.575 84.49 174.01L85.99 174.01ZM83.99 172.01V170.51C83.729 170.51 83.6066 170.478 83.5661 170.464C83.5468 170.457 83.5821 170.469 83.6131 170.508C83.6331 170.533 83.5975 170.504 83.5592 170.337C83.5199 170.166 83.49 169.903 83.49 169.51H81.99H80.49C80.49 170.49 80.6164 171.566 81.2719 172.384C82.0032 173.297 83.0617 173.51 83.99 173.51V172.01ZM81.99 169.51L83.49 169.51C83.49 168.52 83.4026 167.301 82.5506 166.449C81.6987 165.597 80.4794 165.51 79.49 165.51V167.01V168.51C79.9445 168.51 80.2158 168.54 80.3768 168.578C80.521 168.613 80.4924 168.634 80.4293 168.57C80.3662 168.507 80.3871 168.479 80.4214 168.623C80.4597 168.784 80.49 169.055 80.49 169.51L81.99 169.51ZM79.49 167.01V165.51C79.0354 165.51 78.7641 165.48 78.603 165.441C78.4589 165.407 78.4875 165.386 78.5507 165.449C78.6138 165.512 78.5929 165.541 78.5586 165.397C78.5202 165.236 78.49 164.964 78.49 164.51H76.99H75.49C75.49 165.499 75.5773 166.718 76.4293 167.57C77.2813 168.422 78.5007 168.51 79.49 168.51V167.01ZM76.99 164.51L78.49 164.51C78.49 163.967 78.4941 163.228 78.2642 162.587C77.964 161.751 77.3468 161.222 76.5442 160.936C75.8639 160.693 75.0023 160.605 74.0209 160.56C73.0048 160.514 71.6804 160.51 69.99 160.51V162.01V163.51C71.6995 163.51 72.95 163.514 73.8839 163.557C74.8524 163.601 75.3158 163.683 75.5356 163.761C75.633 163.796 75.4908 163.741 75.4407 163.601C75.4404 163.6 75.4594 163.656 75.4729 163.824C75.4864 163.993 75.49 164.206 75.49 164.51L76.99 164.51ZM69.99 162.01V160.51C68.2996 160.51 66.9752 160.514 65.9591 160.56C64.9777 160.605 64.116 160.693 63.4358 160.936C62.6331 161.222 62.0159 161.751 61.7157 162.587C61.4858 163.228 61.49 163.967 61.49 164.51L62.99 164.51L64.49 164.51C64.49 164.206 64.4936 163.993 64.5071 163.824C64.5206 163.656 64.5396 163.6 64.5393 163.601C64.4891 163.741 64.347 163.796 64.4444 163.761C64.6641 163.683 65.1275 163.601 66.0961 163.557C67.0299 163.514 68.2805 163.51 69.99 163.51V162.01ZM62.99 164.51H61.49C61.49 164.964 61.4598 165.236 61.4214 165.397C61.3871 165.541 61.3662 165.512 61.4293 165.449C61.4925 165.386 61.5211 165.407 61.3769 165.441C61.2159 165.48 60.9446 165.51 60.49 165.51V167.01V168.51C61.4793 168.51 62.6986 168.422 63.5507 167.57C64.4027 166.718 64.49 165.499 64.49 164.51H62.99ZM60.49 167.01V165.51C59.5006 165.51 58.2813 165.597 57.4293 166.449C56.5774 167.301 56.49 168.52 56.49 169.51L57.99 169.51L59.49 169.51C59.49 169.055 59.5202 168.784 59.5586 168.623C59.5929 168.479 59.6138 168.507 59.5507 168.57C59.4876 168.634 59.459 168.613 59.6032 168.578C59.7642 168.54 60.0355 168.51 60.49 168.51V167.01ZM57.99 169.51H56.49C56.49 169.904 56.4605 170.168 56.4214 170.34C56.3833 170.508 56.3479 170.537 56.3689 170.51C56.401 170.47 56.4379 170.457 56.419 170.464C56.3783 170.478 56.2545 170.51 55.99 170.51V172.01V173.51C56.9201 173.51 57.9822 173.298 58.7136 172.382C59.3675 171.562 59.49 170.485 59.49 169.51H57.99ZM55.99 172.01V170.51C55.092 170.51 54.1432 170.735 53.4294 171.449C52.7156 172.163 52.49 173.112 52.49 174.01L53.99 174.01L55.49 174.01C55.49 173.575 55.5978 173.523 55.5507 173.57C55.5036 173.618 55.5547 173.51 55.99 173.51V172.01ZM53.99 174.01H52.49C52.49 174.389 52.4452 174.448 52.4683 174.4C52.5314 174.269 52.636 174.235 52.5591 174.266C52.4214 174.322 52.1159 174.396 51.4857 174.445C50.8752 174.493 50.0693 174.51 48.99 174.51V176.01V177.51C50.0807 177.51 50.9848 177.493 51.7186 177.436C52.4328 177.38 53.106 177.279 53.6758 177.051C54.3065 176.798 54.8473 176.372 55.1698 175.704C55.4523 175.119 55.49 174.495 55.49 174.01H53.99ZM48.99 176.01V174.51C47.9133 174.51 47.1086 174.493 46.4986 174.445C45.869 174.396 45.5626 174.322 45.4238 174.266C45.3449 174.234 45.4485 174.267 45.5116 174.397C45.535 174.445 45.49 174.387 45.49 174.01H43.99H42.49C42.49 174.497 42.5287 175.122 42.8131 175.707C43.1371 176.375 43.6788 176.799 44.3087 177.051C44.8786 177.279 45.5516 177.38 46.2655 177.436C46.9989 177.493 47.9017 177.51 48.99 177.51V176.01ZM43.99 174.01L45.49 174.01C45.49 173.549 45.4647 172.783 44.9748 172.101C44.4701 171.398 43.7008 171.084 42.9633 170.909C41.5443 170.573 39.0844 170.51 34.99 170.51V172.01V173.51C39.2352 173.51 41.2752 173.592 42.2713 173.828C42.7414 173.94 42.6584 174.018 42.5381 173.851C42.4326 173.704 42.49 173.615 42.49 174.01L43.99 174.01ZM34.99 172.01H36.49V148.01H34.99H33.49V172.01H34.99ZM34.99 148.01V146.51H32.49V148.01V149.51H34.99V148.01ZM32.49 148.01V146.51C32.0125 146.51 31.8286 146.473 31.7601 146.449C31.7453 146.443 31.7653 146.449 31.7941 146.474C31.8225 146.498 31.8239 146.51 31.8068 146.479C31.7569 146.387 31.6598 146.13 31.5896 145.518C31.5214 144.925 31.49 144.118 31.49 143.01H29.99H28.49C28.49 144.151 28.5211 145.094 28.6092 145.861C28.6952 146.609 28.8481 147.32 29.1731 147.916C29.5375 148.584 30.0772 149.033 30.7511 149.274C31.3389 149.484 31.9675 149.51 32.49 149.51V148.01ZM29.99 143.01V141.51H6.98999V143.01V144.51H29.99V143.01ZM6.98999 143.01H8.48999V138.51H6.98999H5.48999V143.01H6.98999ZM6.98999 138.51L8.48999 138.51C8.48999 137.479 8.47824 136.618 8.41691 135.928C8.35798 135.264 8.24135 134.569 7.91372 133.979C7.52773 133.284 6.93786 132.883 6.26567 132.689C5.69621 132.525 5.05627 132.51 4.48999 132.51V134.01V135.51C5.07369 135.51 5.32124 135.539 5.43615 135.572C5.44833 135.576 5.3397 135.523 5.29122 135.436C5.28924 135.432 5.31396 135.476 5.34473 135.608C5.37547 135.739 5.40505 135.927 5.42867 136.193C5.47673 136.734 5.48999 137.471 5.48999 138.51L6.98999 138.51ZM4.48999 134.01V132.51C3.8764 132.51 3.63363 132.483 3.52676 132.452C3.50232 132.445 3.55355 132.457 3.62617 132.515C3.70422 132.578 3.74314 132.644 3.75386 132.667C3.75849 132.677 3.73574 132.631 3.71223 132.485C3.68896 132.34 3.6709 132.135 3.66357 131.846C3.6487 131.258 3.68007 130.46 3.738 129.337L2.23999 129.26L0.741981 129.183C0.68491 130.289 0.64628 131.2 0.664533 131.921C0.681879 132.607 0.750028 133.331 1.04112 133.948C1.39761 134.703 2.00318 135.137 2.7026 135.337C3.27385 135.5 3.92858 135.51 4.48999 135.51V134.01ZM2.23999 129.26L3.73784 129.34C3.79242 128.323 3.85223 127.567 3.9352 126.993C4.01996 126.406 4.11551 126.114 4.18712 125.971C4.23329 125.878 4.24488 125.889 4.24733 125.887C4.30686 125.857 4.47094 125.798 4.90142 125.751L4.73999 124.26L4.57856 122.768C4.03906 122.827 3.43315 122.933 2.87643 123.219C2.26264 123.534 1.81172 124.012 1.50289 124.631C1.21949 125.199 1.06754 125.861 0.966038 126.564C0.862752 127.279 0.797561 128.147 0.742145 129.179L2.23999 129.26ZM4.73999 124.26L4.90564 125.751C5.79571 125.652 6.6714 125.371 7.35563 124.758C8.06984 124.119 8.41001 123.267 8.47708 122.364L6.9812 122.253L5.48532 122.142C5.46458 122.421 5.38731 122.494 5.35445 122.523C5.29161 122.58 5.0906 122.712 4.57434 122.769L4.73999 124.26ZM6.9812 122.253L8.48022 122.307L8.4978 121.821L6.99878 121.767L5.49976 121.712L5.48218 122.199L6.9812 122.253ZM6.99878 121.767L8.49464 121.878C8.51541 121.599 8.59269 121.526 8.62572 121.496C8.68864 121.44 8.88966 121.308 9.40564 121.251L9.23999 119.76L9.07435 118.269C8.18416 118.368 7.30856 118.649 6.62442 119.261C5.91036 119.901 5.57012 120.753 5.50292 121.655L6.99878 121.767ZM9.23999 119.76L9.40564 121.251C10.3977 121.14 11.3325 120.789 12.0506 120.07C12.7688 119.352 13.1206 118.418 13.2308 117.425L11.74 117.26L10.2492 117.094C10.1927 117.602 10.0445 117.834 9.92933 117.949C9.81415 118.064 9.58223 118.213 9.07434 118.269L9.23999 119.76ZM11.74 117.26L13.2308 117.425C13.2921 116.874 13.4376 116.684 13.4882 116.633C13.5139 116.607 13.6135 116.51 13.99 116.51V115.01V113.51C13.0333 113.51 12.0911 113.787 11.3669 114.512C10.6675 115.211 10.3546 116.146 10.2492 117.094L11.74 117.26ZM13.99 115.01V116.51C14.4739 116.51 15.185 116.48 15.8319 116.096C16.5553 115.666 16.9157 114.98 17.1111 114.295C17.298 113.641 17.3833 112.818 17.4303 111.846C17.4783 110.853 17.49 109.592 17.49 108.01H15.99H14.49C14.49 109.593 14.4779 110.789 14.4338 111.702C14.3886 112.635 14.3132 113.168 14.2264 113.472C14.148 113.746 14.1216 113.623 14.3002 113.516C14.4025 113.456 14.411 113.51 13.99 113.51V115.01ZM15.99 108.01L17.49 108.01C17.49 106.425 17.4783 105.163 17.4303 104.169C17.3833 103.197 17.298 102.374 17.1109 101.72C16.9152 101.035 16.554 100.349 15.8293 99.9206C15.1825 99.5384 14.4719 99.5098 13.99 99.5098V101.01V102.51C14.4131 102.51 14.4049 102.564 14.3029 102.503C14.1229 102.397 14.1485 102.272 14.2265 102.545C14.3132 102.848 14.3886 103.379 14.4338 104.314C14.4779 105.227 14.49 106.424 14.49 108.01L15.99 108.01ZM13.99 101.01V99.5098C13.6133 99.5098 13.5138 99.4123 13.4882 99.3866C13.4376 99.3361 13.2921 99.1456 13.2308 98.5941L11.74 98.7598L10.2492 98.9254C10.3546 99.874 10.6674 100.808 11.3668 101.508C12.0912 102.232 13.0333 102.51 13.99 102.51V101.01ZM11.74 98.7598L13.2308 98.594C13.1276 97.6655 12.8131 96.785 12.1785 96.0835C11.5381 95.3757 10.6926 94.9837 9.77409 94.8216L9.51343 96.2988L9.25277 97.776C9.66235 97.8483 9.85197 97.9837 9.95379 98.0962C10.0613 98.2151 10.1961 98.4479 10.2492 98.9255L11.74 98.7598ZM9.51343 96.2988L9.72556 94.8139L9.17868 94.7358L8.96655 96.2207L8.75442 97.7056L9.3013 97.7838L9.51343 96.2988ZM8.96655 96.2207L9.22724 94.7435C8.84255 94.6756 8.65339 94.5519 8.55058 94.4491C8.44779 94.3463 8.3241 94.1572 8.25624 93.7726L6.77905 94.0332L5.30186 94.2938C5.45271 95.1489 5.80294 95.9442 6.42932 96.5705C7.05567 97.1968 7.85092 97.547 8.70586 97.6979L8.96655 96.2207ZM6.77905 94.0332L8.26398 93.8211L8.18585 93.2742L6.70093 93.4863L5.216 93.6985L5.29413 94.2453L6.77905 94.0332ZM6.70093 93.4863L8.17809 93.2256C8.01597 92.3072 7.624 91.4617 6.91626 90.8214C6.21478 90.1867 5.33426 89.8721 4.40564 89.7689L4.23999 91.2598L4.07435 92.7506C4.55189 92.8037 4.78462 92.9384 4.90346 93.0459C5.01604 93.1478 5.15146 93.3375 5.22377 93.7471L6.70093 93.4863ZM4.23999 91.2598L4.40731 89.7691C3.95652 89.7185 3.78551 89.6606 3.72516 89.6308C3.70999 89.6233 3.72194 89.6273 3.73988 89.6457C3.75705 89.6633 3.75292 89.6667 3.7355 89.6299C3.68834 89.5304 3.61139 89.2852 3.55928 88.7337C3.50854 88.1966 3.48999 87.4832 3.48999 86.5098H1.98999H0.48999C0.48999 87.4963 0.507696 88.3291 0.572583 89.0159C0.636101 89.6881 0.754154 90.3441 1.0245 90.9146C1.32446 91.5476 1.78442 92.0186 2.39796 92.3212C2.94324 92.5902 3.54347 92.691 4.07267 92.7504L4.23999 91.2598ZM1.98999 86.5098L3.48999 86.5098C3.48999 85.4715 3.50387 84.7352 3.55255 84.1947C3.57648 83.929 3.60635 83.7419 3.63729 83.6105C3.66826 83.4789 3.69312 83.4347 3.69136 83.4379C3.64362 83.5235 3.53637 83.5756 3.54858 83.5721C3.66289 83.5392 3.90917 83.5098 4.48999 83.5098V82.0098V80.5098C3.92583 80.5098 3.28712 80.5254 2.718 80.6894C2.04678 80.8828 1.45766 81.2837 1.07116 81.9768C0.742583 82.5661 0.624508 83.2609 0.564641 83.9256C0.502371 84.617 0.489992 85.4781 0.48999 86.5098L1.98999 86.5098ZM4.48999 82.0098V83.5098C5.00972 83.5098 5.84411 83.5169 6.57162 83.1303C7.44291 82.6674 7.85262 81.8517 8.07019 81.006C8.28017 80.1897 8.3756 79.0999 8.4274 77.7032C8.48015 76.2808 8.48999 74.4211 8.48999 72.0098H6.98999H5.48999C5.48999 74.4285 5.47983 76.2338 5.42946 77.592C5.37813 78.9759 5.28731 79.7823 5.16479 80.2586C5.04986 80.7053 4.98082 80.5784 5.16398 80.4811C5.20337 80.4601 5.14026 80.5098 4.48999 80.5098V82.0098ZM6.98999 72.0098V73.5098H18.49V72.0098V70.5098H6.98999V72.0098ZM18.49 72.0098V73.5098C23.8318 73.5098 26.8797 73.4859 28.5626 73.1925C29.3908 73.0481 30.2752 72.7844 30.8666 72.0795C31.4771 71.3519 31.49 70.4836 31.49 70.0098H29.99H28.49C28.49 70.4759 28.4204 70.3276 28.5684 70.1513C28.6973 69.9976 28.7392 70.1164 28.0474 70.2371C26.6903 70.4736 23.9881 70.5098 18.49 70.5098V72.0098ZM29.99 70.0098L31.49 70.0098C31.49 69.7286 31.528 69.701 31.4992 69.7576C31.4446 69.8649 31.3723 69.8754 31.4776 69.8284C31.624 69.7631 31.9351 69.6727 32.5435 69.6069C33.1377 69.5426 33.9304 69.5098 34.99 69.5098V68.0098V66.5098C33.8847 66.5098 32.97 66.5432 32.2208 66.6243C31.4858 66.7038 30.8175 66.8378 30.2551 67.0888C29.6516 67.3581 29.1412 67.7767 28.8256 68.3968C28.5358 68.9661 28.49 69.5561 28.49 70.0097L29.99 70.0098ZM34.99 68.0098H36.49V44.0098H34.99H33.49V68.0098H34.99ZM34.99 44.0098V45.5098H39.49V44.0098V42.5098H34.99V44.0098ZM39.49 44.0098V45.5098C40.523 45.5098 41.3866 45.4981 42.0805 45.4357C42.7491 45.3755 43.4473 45.2562 44.0411 44.9232C44.7349 44.534 45.1351 43.9447 45.3359 43.2783C45.5075 42.7083 45.5369 42.0633 45.5492 41.482L44.0496 41.4502L42.5499 41.4184C42.5372 42.017 42.5029 42.2819 42.4633 42.4131C42.4529 42.4478 42.4945 42.3509 42.5734 42.3067C42.5746 42.306 42.5292 42.3313 42.3975 42.3625C42.2656 42.3937 42.0781 42.4237 41.8117 42.4477C41.2695 42.4965 40.5319 42.5098 39.49 42.5098V44.0098ZM57.9998 82H56.4998V84.5H57.9998H59.4998V82H57.9998ZM57.9998 84.5H56.4998C56.4998 84.8946 56.4702 85.1585 56.4312 85.3307C56.3931 85.4985 56.3577 85.5268 56.3786 85.5006C56.4108 85.4602 56.4477 85.4471 56.4287 85.4538C56.388 85.4683 56.2643 85.5 55.9998 85.5V87V88.5C56.9299 88.5 57.992 88.2884 58.7234 87.3719C59.3773 86.5526 59.4998 85.4757 59.4998 84.5H57.9998ZM55.9998 87L55.9997 85.5C55.1018 85.5001 54.153 85.7256 53.4392 86.4394C52.7253 87.1532 52.4998 88.102 52.4998 89H53.9998H55.4998C55.4998 88.5647 55.6076 88.5136 55.5604 88.5608C55.5133 88.6079 55.5645 88.5 55.9998 88.5L55.9998 87ZM53.9998 89H52.4998C52.4998 89.3767 52.4023 89.4762 52.3766 89.5018C52.326 89.5524 52.1355 89.6979 51.5841 89.7592L51.7498 91.25L51.9154 92.7408C52.864 92.6354 53.7985 92.3226 54.4979 91.6232C55.2223 90.8988 55.4998 89.9567 55.4998 89H53.9998ZM51.7498 91.25L51.584 89.7592C50.592 89.8695 49.6573 90.2213 48.9392 90.9394C48.221 91.6575 47.8692 92.5922 47.7589 93.5844L49.2498 93.75L50.7406 93.9156C50.797 93.4079 50.9452 93.1759 51.0604 93.0607C51.1757 92.9455 51.4077 92.7973 51.9155 92.7408L51.7498 91.25ZM49.2498 93.75L47.7594 93.5804C47.7216 93.9125 47.666 94.1094 47.6183 94.2223C47.5768 94.3206 47.5485 94.3394 47.5476 94.3402C47.5281 94.3561 47.3295 94.5 46.4998 94.5V96V97.5C47.52 97.5 48.6014 97.3539 49.4469 96.6623C50.3276 95.942 50.6282 94.9036 50.7401 93.9196L49.2498 93.75ZM46.4998 96V94.5H43.9998V96V97.5H46.4998V96ZM43.9998 96H42.4998V120H43.9998H45.4998V96H43.9998ZM43.9998 120V121.5C45.0595 121.5 45.8522 121.533 46.4464 121.597C47.0549 121.663 47.3659 121.753 47.5123 121.819C47.6175 121.866 47.5452 121.855 47.4905 121.748C47.4618 121.691 47.4998 121.719 47.4998 122H48.9998H50.4998C50.4998 121.546 50.454 120.956 50.1643 120.387C49.8487 119.767 49.3382 119.348 48.7347 119.079C48.1723 118.828 47.504 118.694 46.769 118.614C46.0198 118.533 45.105 118.5 43.9998 118.5V120ZM48.9998 122H47.4998C47.4998 122.957 47.7774 123.899 48.5017 124.623C49.2011 125.323 50.1355 125.635 51.084 125.741L51.2498 124.25L51.4155 122.759C50.8641 122.698 50.6736 122.552 50.623 122.502C50.5972 122.476 50.4998 122.377 50.4998 122H48.9998ZM51.2498 124.25L51.0841 125.741C51.592 125.797 51.8239 125.945 51.9391 126.061C52.0543 126.176 52.2025 126.408 52.2589 126.916L53.7498 126.75L55.2406 126.584C55.1303 125.592 54.7786 124.658 54.0604 123.939C53.3423 123.221 52.4075 122.869 51.4154 122.759L51.2498 124.25ZM53.7498 126.75L52.2589 126.916C52.3643 127.864 52.6772 128.799 53.3767 129.498C54.101 130.222 55.043 130.5 55.9997 130.5L55.9998 129L55.9999 127.5C55.6233 127.5 55.5237 127.402 55.4979 127.377C55.4473 127.326 55.3018 127.136 55.2406 126.584L53.7498 126.75ZM55.9998 129V130.5C56.2643 130.5 56.388 130.532 56.4287 130.546C56.4477 130.553 56.4108 130.54 56.3786 130.499C56.3577 130.473 56.3931 130.501 56.4312 130.669C56.4702 130.842 56.4998 131.105 56.4998 131.5H57.9998H59.4998C59.4998 130.524 59.3773 129.447 58.7234 128.628C57.992 127.712 56.9299 127.5 55.9998 127.5V129ZM57.9998 131.5H56.4998V134H57.9998H59.4998V131.5H57.9998ZM57.9998 134V135.5H81.9998V134V132.5H57.9998V134ZM81.9998 134H83.4998C83.4998 132.94 83.5326 132.148 83.5969 131.553C83.6627 130.945 83.7531 130.634 83.8184 130.488C83.8654 130.382 83.8548 130.455 83.7475 130.509C83.691 130.538 83.7186 130.5 83.9998 130.5L83.9998 129L83.9997 127.5C83.546 127.5 82.9561 127.546 82.3868 127.836C81.7667 128.151 81.348 128.662 81.0788 129.265C80.8278 129.827 80.6938 130.496 80.6143 131.231C80.5332 131.98 80.4998 132.895 80.4998 134H81.9998ZM83.9998 129V130.5C84.8976 130.5 85.8466 130.275 86.5604 129.561C87.2743 128.847 87.4998 127.898 87.4998 127H85.9998H84.4998C84.4998 127.435 84.3919 127.487 84.4391 127.439C84.4863 127.392 84.4352 127.5 83.9998 127.5V129ZM85.9998 127H87.4998C87.4998 126.689 87.5808 126.55 87.662 126.46C87.7672 126.344 88.0137 126.162 88.5654 126.022L88.197 124.568L87.8286 123.114C86.9156 123.346 86.0635 123.755 85.4362 124.449C84.785 125.17 84.4998 126.061 84.4998 127H85.9998ZM88.197 124.568L88.5274 126.032L89.1329 125.895L88.8025 124.432L88.4721 122.968L87.8666 123.105L88.197 124.568ZM88.8025 124.432L89.1708 125.886C90.0839 125.654 90.9361 125.245 91.5635 124.551C92.2148 123.83 92.4998 122.939 92.4998 122H90.9998H89.4998C89.4998 122.311 89.4186 122.45 89.3375 122.54C89.2325 122.656 88.9861 122.838 88.4342 122.978L88.8025 124.432ZM90.9998 122H92.4998C92.4998 121.736 92.5314 121.612 92.5459 121.571C92.5527 121.552 92.5395 121.589 92.4992 121.621C92.4731 121.642 92.5014 121.607 92.6692 121.569C92.8414 121.53 93.1053 121.5 93.4998 121.5L93.4998 120L93.4997 118.5C92.5241 118.5 91.4472 118.623 90.6279 119.276C89.7115 120.008 89.4998 121.07 89.4998 122H90.9998ZM93.4998 120V121.5H95.9998V120V118.5H93.4998V120ZM95.9998 120H97.4998V96H95.9998H94.4998V120H95.9998ZM95.9998 96L95.9998 94.5C93.9402 94.5 92.979 94.3586 92.523 94.1744C92.4304 94.137 92.385 94.1073 92.3672 94.0941C92.3583 94.0876 92.3545 94.0838 92.3538 94.0831C92.3532 94.0825 92.3533 94.0825 92.3532 94.0824C92.353 94.0821 92.3508 94.0791 92.3469 94.0716C92.3429 94.0639 92.3364 94.0502 92.3284 94.0286C92.3118 93.9835 92.2908 93.9102 92.2705 93.7936L90.7927 94.0508L89.3149 94.308C89.3988 94.79 89.5586 95.3386 89.9241 95.8429C90.3021 96.3645 90.8121 96.7188 91.3992 96.956C92.4647 97.3865 93.9817 97.5 95.9997 97.5L95.9998 96ZM90.7927 94.0508L92.2776 93.8386L92.1956 93.2644L90.7107 93.4766L89.2258 93.6887L89.3078 94.2629L90.7927 94.0508ZM90.7107 93.4766L92.1879 93.2159C92.0258 92.2975 91.6338 91.4519 90.926 90.8115C90.2245 90.1768 89.344 89.8623 88.4154 89.7592L88.2498 91.25L88.0841 92.7408C88.5618 92.7939 88.7945 92.9286 88.9133 93.0361C89.0258 93.1379 89.1612 93.3276 89.2335 93.7373L90.7107 93.4766ZM88.2498 91.25L88.4155 89.7592C87.8641 89.6979 87.6736 89.5524 87.623 89.5018C87.5972 89.4761 87.4998 89.3765 87.4998 89H85.9998H84.4998C84.4998 89.9567 84.7774 90.8989 85.5017 91.6231C86.2011 92.3225 87.1355 92.6354 88.084 92.7408L88.2498 91.25ZM85.9998 89H87.4998C87.4998 88.1021 87.2743 87.1532 86.5604 86.4393C85.8466 85.7255 84.8976 85.5 83.9998 85.5V87V88.5C84.4352 88.5 84.4863 88.6078 84.4391 88.5607C84.3919 88.5135 84.4998 88.5645 84.4998 89H85.9998ZM83.9998 87L83.9998 85.5C83.7354 85.5 83.6116 85.4683 83.5709 85.4538C83.5519 85.447 83.5888 85.4602 83.6209 85.5005C83.6418 85.5266 83.6064 85.4983 83.5684 85.3306C83.5293 85.1584 83.4998 84.8945 83.4998 84.5H81.9998H80.4998C80.4998 85.4758 80.6223 86.5527 81.2762 87.3719C82.0076 88.2882 83.0696 88.5 83.9997 88.5L83.9998 87ZM81.9998 84.5H83.4998V82H81.9998H80.4998V84.5H81.9998ZM81.9998 82V80.5H57.9998V82V83.5H81.9998V82ZM198.49 2.00977V3.50977C199.442 3.50977 200.147 3.52819 200.679 3.57584C201.229 3.62511 201.476 3.69721 201.571 3.73963C201.604 3.75421 201.511 3.70677 201.462 3.59765C201.447 3.56619 201.49 3.6418 201.49 4.00982L202.99 4.00977L204.49 4.00971C204.49 3.52284 204.45 2.92101 204.192 2.35425C203.898 1.70984 203.401 1.26926 202.788 0.997567C202.239 0.753708 201.601 0.64639 200.947 0.587812C200.275 0.527619 199.458 0.509766 198.49 0.509766V2.00977ZM202.99 4.00977H201.49C201.49 4.49712 201.531 5.09843 201.791 5.66526C202.086 6.30746 202.584 6.74633 203.194 7.01776C203.743 7.26203 204.381 7.37065 205.035 7.43016C205.707 7.49128 206.523 7.50977 207.49 7.50977V6.00977V4.50977C206.542 4.50977 205.838 4.49075 205.307 4.44249C204.759 4.39263 204.511 4.32 204.413 4.27677C204.377 4.2607 204.468 4.30582 204.518 4.41365C204.533 4.4461 204.49 4.37241 204.49 4.00977H202.99ZM207.49 6.00977V7.50977C208.529 7.50977 209.266 7.52304 209.807 7.5711C210.073 7.59474 210.26 7.62432 210.392 7.65506C210.524 7.68583 210.567 7.71055 210.564 7.70857C210.477 7.66009 210.424 7.55148 210.428 7.56368C210.461 7.67859 210.49 7.92612 210.49 8.50978L211.99 8.50977L213.49 8.50975C213.49 7.94352 213.474 7.30362 213.311 6.73417C213.117 6.06202 212.716 5.47214 212.021 5.08613C211.431 4.75847 210.736 4.64182 210.072 4.58287C209.382 4.52152 208.521 4.50977 207.49 4.50977V6.00977ZM211.99 8.50977H210.49C210.49 9.49905 210.577 10.7184 211.429 11.5704C212.281 12.4224 213.501 12.5098 214.49 12.5098V11.0098V9.50977C214.035 9.50977 213.764 9.47953 213.603 9.44118C213.459 9.40686 213.488 9.38597 213.551 9.44911C213.614 9.51225 213.593 9.54088 213.559 9.39671C213.52 9.23564 213.49 8.96435 213.49 8.50977H211.99ZM214.49 11.0098V12.5098C215.074 12.5098 215.321 12.5392 215.436 12.5723C215.448 12.5758 215.34 12.5231 215.291 12.4358C215.289 12.4322 215.314 12.4762 215.345 12.6079C215.375 12.7395 215.405 12.9268 215.429 13.1928C215.477 13.7341 215.49 14.4708 215.49 15.5098L216.99 15.5098L218.49 15.5098C218.49 14.4789 218.478 13.6182 218.417 12.9275C218.358 12.2638 218.241 11.5687 217.914 10.9789C217.528 10.2841 216.938 9.88262 216.266 9.68922C215.696 9.52537 215.056 9.50977 214.49 9.50977V11.0098ZM216.99 15.5098H215.49C215.49 16.484 215.472 17.1978 215.422 17.7355C215.37 18.288 215.294 18.5329 215.247 18.632C215.23 18.6683 215.226 18.6643 215.244 18.6462C215.263 18.6272 215.275 18.6229 215.26 18.6304C215.199 18.6602 215.027 18.7184 214.574 18.769L214.74 20.2598L214.906 21.7505C215.438 21.6912 216.039 21.5906 216.585 21.3216C217.2 21.0187 217.661 20.5468 217.96 19.9125C218.23 19.3416 218.346 18.6853 218.409 18.014C218.473 17.3279 218.49 16.4956 218.49 15.5098H216.99ZM214.74 20.2598L214.576 18.7688C214.057 18.8259 213.361 18.9191 212.748 19.2788C212.033 19.6979 211.628 20.3441 211.399 21.0807C211.189 21.7569 211.098 22.5981 211.049 23.585C211 24.5943 210.99 25.8832 210.99 27.5098L212.49 27.5098L213.99 27.5098C213.99 25.8765 214 24.6579 214.046 23.7326C214.093 22.7848 214.173 22.2641 214.264 21.9715C214.336 21.7393 214.362 21.8098 214.265 21.8668C214.253 21.8742 214.279 21.8557 214.389 21.8295C214.504 21.8024 214.663 21.7773 214.904 21.7508L214.74 20.2598ZM212.49 27.5098H210.99C210.99 29.1364 211 30.4247 211.049 31.4333C211.098 32.4194 211.189 33.2599 211.399 33.9357C211.628 34.6725 212.034 35.3168 212.747 35.7357C213.358 36.0949 214.051 36.1906 214.569 36.25L214.74 34.7598L214.911 33.2696C214.669 33.2418 214.509 33.216 214.394 33.1883C214.282 33.1615 214.255 33.1425 214.267 33.1494C214.362 33.2053 214.335 33.2745 214.263 33.0438C214.173 32.7521 214.093 32.2326 214.046 31.2856C214 30.3611 213.99 29.1431 213.99 27.5098H212.49ZM214.74 34.7598L214.574 36.2506C215.09 36.3079 215.291 36.4398 215.354 36.4962C215.387 36.5257 215.465 36.599 215.485 36.878L216.981 36.7666L218.477 36.6552C218.41 35.7528 218.07 34.9007 217.356 34.2613C216.671 33.6486 215.796 33.3679 214.906 33.2689L214.74 34.7598ZM216.981 36.7666L215.482 36.8208L215.5 37.3071L216.999 37.2529L218.498 37.1987L218.48 36.7124L216.981 36.7666ZM216.999 37.2529L215.503 37.3641C215.57 38.2667 215.91 39.1189 216.624 39.7584C217.309 40.3711 218.184 40.6517 219.074 40.7506L219.24 39.2598L219.406 37.7689C218.889 37.7116 218.688 37.5797 218.626 37.5234C218.593 37.494 218.515 37.421 218.495 37.1418L216.999 37.2529ZM219.24 39.2598L219.074 40.7506C219.582 40.807 219.814 40.9552 219.929 41.0705C220.044 41.1857 220.193 41.4177 220.249 41.9255L221.74 41.7598L223.231 41.594C223.121 40.602 222.769 39.6673 222.051 38.9492C221.332 38.231 220.398 37.8792 219.406 37.7689L219.24 39.2598ZM221.74 41.7598L220.25 41.9309C220.307 42.432 220.407 43.3128 221.077 44.0229C221.726 44.7094 222.659 44.9875 223.647 45.1489C225.644 45.4751 229.307 45.5098 235.99 45.5098V44.0098V42.5098C229.163 42.5098 225.821 42.4644 224.131 42.1881C223.275 42.0483 223.194 41.8945 223.259 41.9632C223.346 42.0555 223.293 42.1326 223.23 41.5886L221.74 41.7598ZM235.99 44.0098H234.49V68.0098H235.99H237.49V44.0098H235.99ZM235.99 68.0098V66.5098H228.99V68.0098V69.5098H235.99V68.0098ZM228.99 68.0098V66.5098C227.408 66.5098 226.147 66.5215 225.153 66.5695C224.181 66.6166 223.359 66.7018 222.705 66.8888C222.02 67.0841 221.334 67.4446 220.904 68.1678C220.52 68.8148 220.49 69.5258 220.49 70.0097L221.99 70.0098L223.49 70.0098C223.49 69.5889 223.544 69.5974 223.483 69.6997C223.377 69.8783 223.254 69.8518 223.528 69.7735C223.832 69.6866 224.365 69.6112 225.298 69.566C226.211 69.5218 227.407 69.5098 228.99 69.5098V68.0098ZM221.99 70.0098H220.49C220.49 70.2727 220.459 70.3963 220.444 70.4375C220.437 70.4572 220.45 70.4205 220.49 70.3881C220.517 70.3668 220.489 70.4022 220.322 70.4404C220.15 70.4798 219.886 70.5098 219.49 70.5098V72.0098V73.5098C220.473 73.5098 221.552 73.3841 222.37 72.7264C223.282 71.9929 223.49 70.9321 223.49 70.0098H221.99ZM219.49 72.0098V70.5098C218.501 70.5098 217.281 70.5972 216.429 71.4492C215.577 72.3012 215.49 73.5205 215.49 74.5097L216.99 74.5098L218.49 74.5098C218.49 74.0553 218.52 73.784 218.559 73.623C218.593 73.4788 218.614 73.5074 218.551 73.5705C218.488 73.6336 218.459 73.6127 218.603 73.5784C218.764 73.54 219.035 73.5098 219.49 73.5098V72.0098ZM216.99 74.5098H215.49C215.49 75.3395 215.346 75.5381 215.33 75.5576C215.329 75.5585 215.311 75.5868 215.212 75.6283C215.099 75.676 214.902 75.7316 214.57 75.7694L214.74 77.2598L214.91 78.7501C215.894 78.6382 216.932 78.3376 217.652 77.4569C218.344 76.6114 218.49 75.53 218.49 74.5098H216.99ZM214.74 77.2598L214.576 75.7688C214.057 75.8259 213.361 75.9191 212.748 76.2788C212.033 76.6979 211.628 77.3441 211.399 78.0807C211.189 78.7569 211.098 79.5981 211.049 80.585C211 81.5943 210.99 82.8832 210.99 84.5098L212.49 84.5098L213.99 84.5098C213.99 82.8765 214 81.6579 214.046 80.7326C214.093 79.7848 214.173 79.2641 214.264 78.9715C214.336 78.7393 214.362 78.8098 214.265 78.8668C214.253 78.8742 214.279 78.8557 214.389 78.8295C214.504 78.8024 214.663 78.7773 214.904 78.7508L214.74 77.2598ZM212.49 84.5098H210.99C210.99 86.1364 211 87.4247 211.049 88.4333C211.098 89.4194 211.189 90.2599 211.399 90.9357C211.628 91.6725 212.034 92.3168 212.747 92.7357C213.358 93.0949 214.051 93.1906 214.569 93.25L214.74 91.7598L214.911 90.2696C214.669 90.2418 214.509 90.216 214.394 90.1883C214.282 90.1615 214.255 90.1425 214.267 90.1494C214.362 90.2053 214.335 90.2745 214.263 90.0438C214.173 89.7521 214.093 89.2326 214.046 88.2856C214 87.3611 213.99 86.1431 213.99 84.5098H212.49ZM214.74 91.7598L214.574 93.2505C215.029 93.3014 215.201 93.3592 215.263 93.3891C215.278 93.3965 215.265 93.3921 215.246 93.3727C215.228 93.3539 215.231 93.3492 215.248 93.3848C215.294 93.4827 215.37 93.7267 215.422 94.2798C215.472 94.8179 215.49 95.5331 215.49 96.5098L216.99 96.5098L218.49 96.5098C218.49 95.5216 218.473 94.688 218.409 94.0015C218.346 93.3299 218.23 92.6733 217.96 92.1024C217.66 91.4675 217.198 90.9967 216.583 90.6952C216.037 90.4279 215.436 90.3282 214.906 90.269L214.74 91.7598ZM216.99 96.5098H215.49C215.49 97.5463 215.477 98.2818 215.429 98.8225C215.405 99.0883 215.375 99.2756 215.345 99.4075C215.314 99.5394 215.289 99.584 215.291 99.5812C215.338 99.496 215.445 99.4434 215.433 99.4468C215.319 99.4798 215.072 99.5098 214.49 99.5098V101.01V102.51C215.058 102.51 215.698 102.493 216.269 102.328C216.941 102.133 217.53 101.73 217.914 101.036C218.241 100.446 218.358 99.7515 218.417 99.088C218.478 98.3978 218.49 97.5383 218.49 96.5098H216.99ZM214.49 101.01V99.5098C213.501 99.5098 212.281 99.5972 211.429 100.449C210.577 101.301 210.49 102.52 210.49 103.51L211.99 103.51L213.49 103.51C213.49 103.055 213.52 102.784 213.559 102.623C213.593 102.479 213.614 102.507 213.551 102.57C213.488 102.634 213.459 102.613 213.603 102.578C213.764 102.54 214.035 102.51 214.49 102.51V101.01ZM211.99 103.51H210.49C210.49 104.091 210.461 104.337 210.428 104.451C210.424 104.463 210.476 104.356 210.562 104.308C210.565 104.307 210.521 104.332 210.389 104.362C210.258 104.393 210.071 104.423 209.805 104.447C209.265 104.496 208.528 104.51 207.49 104.51V106.01V107.51C208.522 107.51 209.383 107.497 210.074 107.435C210.739 107.375 211.434 107.257 212.023 106.929C212.716 106.542 213.117 105.953 213.31 105.282C213.474 104.713 213.49 104.074 213.49 103.51H211.99ZM207.49 106.01V104.51C206.524 104.51 205.709 104.528 205.037 104.588C204.384 104.646 203.746 104.754 203.196 104.997C202.585 105.268 202.086 105.707 201.791 106.351C201.531 106.918 201.49 107.521 201.49 108.01L202.99 108.01L204.49 108.01C204.49 107.644 204.533 107.569 204.518 107.601C204.468 107.709 204.376 107.756 204.411 107.74C204.508 107.697 204.756 107.625 205.305 107.576C205.837 107.528 206.541 107.51 207.49 107.51V106.01ZM202.99 108.01H201.49C201.49 108.4 201.433 108.311 201.539 108.164C201.659 107.997 201.74 108.076 201.27 108.188C200.275 108.425 198.234 108.51 193.99 108.51V110.01V111.51C198.086 111.51 200.545 111.444 201.965 111.106C202.702 110.931 203.47 110.616 203.974 109.915C204.464 109.234 204.49 108.469 204.49 108.01H202.99ZM193.99 110.01H195.49V105.51H193.99H192.49V110.01H193.99ZM193.99 105.51L195.49 105.51C195.49 104.479 195.478 103.618 195.417 102.928C195.358 102.264 195.241 101.569 194.914 100.979C194.528 100.284 193.938 99.8826 193.266 99.6892C192.696 99.5254 192.056 99.5098 191.49 99.5098V101.01V102.51C192.074 102.51 192.321 102.539 192.436 102.572C192.448 102.576 192.34 102.523 192.291 102.436C192.289 102.432 192.314 102.476 192.345 102.608C192.375 102.739 192.405 102.927 192.429 103.193C192.477 103.734 192.49 104.471 192.49 105.51L193.99 105.51ZM191.49 101.01V99.5098C191.035 99.5098 190.764 99.4795 190.603 99.4412C190.459 99.4069 190.488 99.386 190.551 99.4491C190.614 99.5122 190.593 99.5409 190.559 99.3967C190.52 99.2356 190.49 98.9644 190.49 98.5098H188.99H187.49C187.49 99.499 187.577 100.718 188.429 101.57C189.281 102.422 190.501 102.51 191.49 102.51V101.01ZM188.99 98.5098L190.49 98.5098C190.49 98.2138 190.49 97.8771 190.465 97.5664C190.44 97.2522 190.382 96.865 190.216 96.4768C189.816 95.546 189.021 95.0989 188.173 94.8756C187.393 94.6701 186.345 94.5907 185.014 94.5509C183.652 94.5102 181.848 94.5098 179.49 94.5098V96.0098V97.5098C181.867 97.5098 183.618 97.5106 184.925 97.5496C186.263 97.5896 186.998 97.6683 187.409 97.7766C187.752 97.8671 187.557 97.8894 187.459 97.6608C187.443 97.6236 187.462 97.6457 187.475 97.8086C187.489 97.975 187.49 98.1833 187.49 98.5098L188.99 98.5098ZM179.49 96.0098V94.5098C176.855 94.5098 174.453 94.5929 172.702 94.732C171.835 94.8009 171.085 94.8866 170.534 94.9923C170.273 95.0425 169.974 95.112 169.713 95.2192C169.593 95.2685 169.37 95.3691 169.158 95.556C168.948 95.7407 168.521 96.2273 168.624 96.9667L170.11 96.7598L171.596 96.5529C171.691 97.2398 171.291 97.6745 171.139 97.8083C170.985 97.9442 170.852 97.9947 170.852 97.9948C170.83 98.0036 170.892 97.9784 171.1 97.9385C171.487 97.8642 172.107 97.7887 172.94 97.7226C174.588 97.5917 176.906 97.5098 179.49 97.5098V96.0098ZM170.11 96.7598L168.632 97.0122C168.631 97.0107 168.632 97.0158 168.634 97.0288C168.635 97.0415 168.637 97.059 168.639 97.0817C168.644 97.1277 168.648 97.1873 168.651 97.2607C168.659 97.4078 168.663 97.5911 168.663 97.7998C168.663 98.2177 168.646 98.7042 168.614 99.1518L170.11 99.2598L171.606 99.3677C171.644 98.8454 171.663 98.2868 171.663 97.7998C171.663 97.3485 171.647 96.8511 171.589 96.5073L170.11 96.7598ZM170.11 99.2598L168.613 99.159C168.606 99.2737 168.567 99.3279 168.517 99.3695C168.455 99.4209 168.297 99.5098 167.99 99.5098V101.01V102.51C169.81 102.51 171.473 101.347 171.607 99.3605L170.11 99.2598ZM167.99 101.01V99.5098C167.531 99.5098 166.766 99.5353 166.084 100.026C165.384 100.53 165.069 101.298 164.893 102.035C164.555 103.454 164.49 105.914 164.49 110.01L165.99 110.01L167.49 110.01C167.49 105.766 167.575 103.725 167.812 102.73C167.924 102.26 168.003 102.341 167.836 102.461C167.689 102.567 167.599 102.51 167.99 102.51V101.01ZM165.99 110.01V108.51H160.99V110.01V111.51H165.99V110.01ZM160.99 110.01V108.51C159.913 108.51 159.109 108.493 158.499 108.445C157.869 108.396 157.563 108.322 157.424 108.266C157.345 108.234 157.448 108.267 157.512 108.397C157.535 108.445 157.49 108.387 157.49 108.01H155.99H154.49C154.49 108.497 154.529 109.122 154.813 109.708C155.137 110.375 155.679 110.799 156.309 111.051C156.879 111.279 157.552 111.38 158.265 111.436C158.999 111.493 159.902 111.51 160.99 111.51V110.01ZM155.99 108.01L157.49 108.01C157.49 107.508 157.437 106.923 157.182 106.365C156.903 105.757 156.447 105.316 155.88 105.016C155.357 104.739 154.749 104.585 154.121 104.483C153.481 104.379 152.716 104.313 151.826 104.262L151.74 105.76L151.654 107.257C152.513 107.306 153.155 107.365 153.64 107.444C154.137 107.525 154.373 107.612 154.475 107.666C154.533 107.697 154.483 107.678 154.455 107.616C154.449 107.603 154.49 107.687 154.49 108.01L155.99 108.01ZM151.74 105.76L151.828 104.262C150.95 104.211 150.301 104.15 149.811 104.067C149.313 103.983 149.074 103.891 148.963 103.829C148.895 103.791 148.89 103.777 148.876 103.747C148.838 103.672 148.778 103.495 148.73 103.086L147.24 103.26L145.75 103.433C145.812 103.969 145.924 104.552 146.192 105.089C146.484 105.673 146.922 106.126 147.504 106.45C148.044 106.751 148.666 106.916 149.312 107.025C149.966 107.136 150.745 107.204 151.652 107.257L151.74 105.76ZM147.24 103.26L148.731 103.094C148.621 102.102 148.269 101.167 147.551 100.449C146.832 99.731 145.898 99.3792 144.906 99.2689L144.74 100.76L144.574 102.251C145.082 102.307 145.314 102.455 145.429 102.57C145.544 102.686 145.693 102.918 145.749 103.425L147.24 103.26ZM144.74 100.76L144.907 99.2691C144.457 99.2185 144.286 99.1606 144.225 99.1308C144.21 99.1233 144.222 99.1273 144.24 99.1457C144.257 99.1633 144.253 99.1667 144.235 99.1299C144.188 99.0304 144.111 98.7852 144.059 98.2337C144.009 97.6966 143.99 96.9832 143.99 96.0098H142.49H140.99C140.99 96.9963 141.008 97.8291 141.073 98.5159C141.136 99.1881 141.254 99.8441 141.524 100.415C141.824 101.048 142.284 101.519 142.898 101.821C143.443 102.09 144.043 102.191 144.573 102.25L144.74 100.76ZM142.49 96.0098L143.99 96.0098C143.99 95.0338 144.009 94.3191 144.059 93.7816C144.111 93.2295 144.188 92.9852 144.235 92.8869C144.252 92.8509 144.256 92.855 144.238 92.8731C144.22 92.892 144.207 92.8962 144.222 92.8887C144.283 92.8588 144.455 92.8012 144.907 92.7504L144.74 91.2598L144.573 89.7691C144.045 89.8283 143.445 89.9282 142.901 90.1956C142.287 90.4968 141.826 90.9667 141.525 91.6003C141.254 92.1708 141.136 92.8271 141.073 93.4996C141.008 94.1868 140.99 95.0208 140.99 96.0098L142.49 96.0098ZM144.74 91.2598L144.906 92.7506C145.407 92.6949 146.186 92.6082 146.85 92.1541C147.604 91.6383 147.95 90.8577 148.137 90.048C148.319 89.2588 148.399 88.2192 148.441 86.8906C148.485 85.5399 148.49 83.782 148.49 81.5098H146.99H145.49C145.49 83.7925 145.484 85.5008 145.443 86.7949C145.401 88.1109 145.324 88.8945 145.213 89.374C145.107 89.833 145.026 89.7668 145.156 89.6782C145.195 89.6514 145.153 89.7046 144.574 89.7689L144.74 91.2598ZM146.99 81.5098L148.49 81.5098C148.49 79.152 148.49 77.3482 148.45 75.9864C148.411 74.6565 148.333 73.608 148.128 72.828C147.906 71.9796 147.459 71.1839 146.527 70.7839C146.138 70.6173 145.75 70.5598 145.436 70.5344C145.125 70.5093 144.787 70.5098 144.49 70.5098V72.0098V73.5098C144.818 73.5098 145.027 73.5112 145.194 73.5247C145.358 73.5379 145.381 73.5568 145.344 73.541C145.115 73.4426 145.137 73.2464 145.227 73.5892C145.334 74.0005 145.412 74.7351 145.452 76.0742C145.49 77.3815 145.49 79.1326 145.49 81.5098L146.99 81.5098ZM144.49 72.0098V70.5098C144.097 70.5098 143.834 70.4798 143.663 70.4405C143.496 70.4023 143.467 70.3667 143.492 70.3867C143.53 70.4176 143.543 70.453 143.536 70.4337C143.521 70.3932 143.49 70.2707 143.49 70.0098H141.99H140.49C140.49 70.9381 140.703 71.9966 141.616 72.7278C142.434 73.3833 143.509 73.5098 144.49 73.5098V72.0098ZM141.99 70.0098L143.49 70.0097C143.49 69.5162 143.476 68.5057 142.57 67.7591C141.859 67.1739 140.816 66.9587 139.664 66.826C137.222 66.5446 132.608 66.5098 123.99 66.5098V68.0098V69.5098C132.711 69.5098 137.097 69.55 139.32 69.8062C140.501 69.9422 140.707 70.1115 140.662 70.0747C140.422 69.8765 140.49 69.5785 140.49 70.0098L141.99 70.0098ZM123.99 68.0098H125.49V44.0098H123.99H122.49V68.0098H123.99ZM123.99 44.0098V45.5098H130.99V44.0098V42.5098H123.99V44.0098ZM130.99 44.0098V45.5098C132.68 45.5098 134.005 45.5057 135.021 45.4593C136.002 45.4145 136.864 45.3265 137.544 45.0837C138.347 44.7972 138.964 44.2686 139.264 43.4323C139.494 42.7919 139.49 42.0526 139.49 41.5098H137.99H136.49C136.49 41.8137 136.486 42.0268 136.473 42.1953C136.459 42.364 136.44 42.4196 136.441 42.4188C136.491 42.279 136.633 42.2236 136.536 42.2583C136.316 42.3368 135.853 42.4182 134.884 42.4624C133.95 42.5051 132.7 42.5098 130.99 42.5098V44.0098ZM137.99 41.5098L139.49 41.5098C139.49 41.1138 139.52 40.8496 139.559 40.6779C139.598 40.5108 139.633 40.4831 139.612 40.5096C139.579 40.5498 139.543 40.5626 139.562 40.5556C139.604 40.541 139.727 40.5098 139.99 40.5098V39.0098V37.5098C139.068 37.5098 138.007 37.7175 137.273 38.6301C136.616 39.4483 136.49 40.5265 136.49 41.5097L137.99 41.5098ZM139.99 39.0098V40.5098C140.888 40.5098 141.837 40.2843 142.551 39.5704C143.265 38.8566 143.49 37.9077 143.49 37.0098H141.99H140.49C140.49 37.4452 140.382 37.4963 140.429 37.4491C140.477 37.4019 140.425 37.5098 139.99 37.5098V39.0098ZM141.99 37.0098L143.49 37.0098C143.49 36.7454 143.522 36.6217 143.536 36.5809C143.543 36.562 143.53 36.5988 143.49 36.6309C143.463 36.6518 143.492 36.6164 143.659 36.5784C143.832 36.5393 144.095 36.5098 144.49 36.5098V35.0098V33.5098C143.514 33.5098 142.437 33.6323 141.618 34.2862C140.702 35.0176 140.49 36.0796 140.49 37.0097L141.99 37.0098ZM144.49 35.0098V36.5098C145.022 36.5098 145.776 36.5204 146.416 36.2933C146.792 36.16 147.159 35.9404 147.468 35.5943C147.767 35.2595 147.948 34.8762 148.064 34.5036C148.279 33.8094 148.333 32.9254 148.34 31.9109C148.347 30.8587 148.301 29.4791 148.239 27.7072L146.74 27.7598L145.241 27.8123C145.304 29.6054 145.347 30.9146 145.34 31.8901C145.333 32.9035 145.269 33.3864 145.199 33.6134C145.171 33.7014 145.167 33.6674 145.229 33.5973C145.302 33.5159 145.383 33.4766 145.413 33.4659C145.421 33.4633 145.369 33.4819 145.194 33.4947C145.02 33.5073 144.803 33.5098 144.49 33.5098V35.0098ZM146.74 27.7598L148.239 27.7083C148.182 26.0359 148.126 24.7101 148.04 23.6701C147.955 22.6503 147.835 21.7934 147.607 21.1093C147.362 20.3763 146.957 19.7309 146.254 19.3042C145.633 18.9274 144.936 18.8276 144.405 18.7689L144.24 20.2598L144.075 21.7507C144.311 21.7767 144.465 21.8022 144.575 21.8293C144.679 21.8552 144.706 21.874 144.698 21.8689C144.622 21.8231 144.669 21.7821 144.761 22.0579C144.869 22.3826 144.969 22.9388 145.05 23.9174C145.129 24.8758 145.183 26.1337 145.241 27.8112L146.74 27.7598ZM144.24 20.2598L144.407 18.7691C143.957 18.7185 143.786 18.6606 143.725 18.6308C143.71 18.6233 143.722 18.6273 143.74 18.6457C143.757 18.6633 143.753 18.6667 143.735 18.6299C143.688 18.5304 143.611 18.2852 143.559 17.7337C143.509 17.1966 143.49 16.4832 143.49 15.5098H141.99H140.49C140.49 16.4963 140.508 17.3291 140.573 18.0159C140.636 18.6881 140.754 19.3441 141.024 19.9146C141.324 20.5476 141.784 21.0186 142.398 21.3212C142.943 21.5902 143.543 21.691 144.073 21.7504L144.24 20.2598ZM141.99 15.5098L143.49 15.5098C143.49 14.4715 143.504 13.7352 143.553 13.1947C143.576 12.929 143.606 12.7419 143.637 12.6105C143.668 12.4789 143.693 12.4347 143.691 12.4379C143.644 12.5235 143.536 12.5756 143.549 12.5721C143.663 12.5392 143.909 12.5098 144.49 12.5098V11.0098V9.50977C143.926 9.50977 143.287 9.52539 142.718 9.68937C142.047 9.88276 141.458 10.2837 141.071 10.9768C140.743 11.5661 140.625 12.2609 140.565 12.9256C140.502 13.617 140.49 14.4781 140.49 15.5098L141.99 15.5098ZM144.49 11.0098V12.5098C145.479 12.5098 146.699 12.4224 147.551 11.5704C148.403 10.7184 148.49 9.49905 148.49 8.50977H146.99H145.49C145.49 8.96435 145.46 9.23564 145.421 9.39671C145.387 9.54088 145.366 9.51225 145.429 9.44911C145.492 9.38597 145.521 9.40686 145.377 9.44118C145.216 9.47953 144.945 9.50977 144.49 9.50977V11.0098ZM146.99 8.50977L148.49 8.50978C148.49 7.92755 148.52 7.68061 148.553 7.56671C148.556 7.55505 148.504 7.66199 148.419 7.7092C148.416 7.71077 148.46 7.68591 148.592 7.65509C148.724 7.62431 148.912 7.59472 149.177 7.57109C149.718 7.52303 150.454 7.50977 151.49 7.50977V6.00977V4.50977C150.462 4.50977 149.602 4.52152 148.912 4.58288C148.248 4.64186 147.554 4.75855 146.964 5.0855C146.27 5.47025 145.867 6.05845 145.672 6.73114C145.506 7.30159 145.49 7.9421 145.49 8.50975L146.99 8.50977ZM151.49 6.00977V7.50977C152.459 7.50977 153.276 7.49128 153.949 7.43017C154.604 7.37069 155.242 7.26207 155.791 7.01733C156.402 6.745 156.898 6.30475 157.192 5.66196C157.45 5.09573 157.49 4.49517 157.49 4.00977H155.99H154.49C154.49 4.37436 154.448 4.4488 154.462 4.41694C154.512 4.30853 154.603 4.26203 154.569 4.27721C154.473 4.31996 154.226 4.3926 153.677 4.44248C153.146 4.49075 152.441 4.50977 151.49 4.50977V6.00977ZM155.99 4.00977L157.49 4.00982C157.49 3.60373 157.551 3.72122 157.426 3.88247C157.303 4.04142 157.241 3.94373 157.802 3.82479C158.944 3.58286 161.252 3.50977 165.99 3.50977V2.00977V0.509766C161.398 0.509766 158.706 0.566779 157.181 0.889908C156.408 1.0535 155.596 1.34706 155.055 2.04412C154.513 2.74347 154.49 3.54591 154.49 4.00971L155.99 4.00977ZM165.99 2.00977H164.49V6.50977H165.99H167.49V2.00977H165.99ZM165.99 6.50977H164.49C164.49 7.47653 164.508 8.29244 164.57 8.96451C164.629 9.61896 164.738 10.2566 164.982 10.8057C165.253 11.4159 165.692 11.9136 166.334 12.2085C166.901 12.4687 167.503 12.5098 167.99 12.5098V11.0098V9.50977C167.627 9.50977 167.554 9.46712 167.586 9.48201C167.694 9.53152 167.739 9.62243 167.723 9.58632C167.68 9.48914 167.607 9.2412 167.557 8.69283C167.509 8.16209 167.49 7.458 167.49 6.50977H165.99ZM167.99 11.0098V12.5098C168.367 12.5098 168.466 12.6072 168.492 12.633C168.542 12.6836 168.688 12.8741 168.749 13.4255L170.24 13.2598L171.731 13.094C171.625 12.1455 171.313 11.2111 170.613 10.5117C169.889 9.78737 168.947 9.50977 167.99 9.50977V11.0098ZM170.24 13.2598L168.749 13.4277C168.809 13.9551 168.913 14.9095 169.746 15.644C170.466 16.279 171.513 16.5512 172.729 16.7333C175.251 17.1105 180.002 17.2658 188.949 17.5092L188.99 16.0098L189.031 14.5103C179.968 14.2637 175.464 14.109 173.173 13.7663C172.616 13.683 172.249 13.5962 172.007 13.5149C171.767 13.434 171.713 13.379 171.731 13.3943C171.839 13.49 171.791 13.6295 171.731 13.0918L170.24 13.2598ZM188.99 16.0098H190.49V13.5098H188.99H187.49V16.0098H188.99ZM188.99 13.5098L190.49 13.5098C190.49 13.0553 190.52 12.784 190.559 12.623C190.593 12.4788 190.614 12.5074 190.551 12.5705C190.488 12.6336 190.459 12.6127 190.603 12.5784C190.764 12.54 191.035 12.5098 191.49 12.5098V11.0098V9.50977C190.501 9.50977 189.281 9.59718 188.429 10.4492C187.577 11.3012 187.49 12.5205 187.49 13.5097L188.99 13.5098ZM191.49 11.0098V12.5098C192.015 12.5098 192.812 12.5103 193.517 12.1612C194.37 11.7384 194.807 10.9816 195.044 10.1613C195.266 9.39123 195.366 8.38148 195.421 7.12245C195.478 5.8369 195.49 4.16465 195.49 2.00977H193.99H192.49C192.49 4.16988 192.477 5.78013 192.424 6.99114C192.37 8.22868 192.277 8.92955 192.161 9.33068C192.06 9.68171 192.016 9.55678 192.185 9.47302C192.205 9.46296 192.115 9.50977 191.49 9.50977V11.0098ZM193.99 2.00977V3.50977H198.49V2.00977V0.509766H193.99V2.00977ZM180.17 39L180.17 37.5C177.713 37.5 175.375 37.5757 173.581 37.6998C172.688 37.7616 171.906 37.8369 171.304 37.9249C171.006 37.9685 170.723 38.0193 170.48 38.0807C170.359 38.1113 170.224 38.1505 170.09 38.2021C169.977 38.2459 169.766 38.3351 169.56 38.5011L170.5 39.6699L171.44 40.8387C171.356 40.9059 171.285 40.9459 171.248 40.9651C171.209 40.9858 171.181 40.997 171.171 41.0007C171.154 41.0073 171.164 41.0021 171.216 40.9891C171.318 40.9633 171.488 40.9299 171.738 40.8934C172.233 40.8211 172.929 40.7521 173.788 40.6926C175.499 40.5743 177.767 40.5 180.17 40.5L180.17 39ZM170.5 39.6699L169.575 38.4889C168.952 38.9765 168.655 39.7448 168.509 40.2891C168.344 40.9064 168.275 41.6173 168.336 42.303L169.83 42.1699L171.324 42.0368C171.295 41.7126 171.33 41.3536 171.408 41.0634C171.446 40.9208 171.486 40.8246 171.514 40.7731C171.547 40.7096 171.532 40.7667 171.424 40.851L170.5 39.6699ZM169.83 42.1699L168.336 42.3087C168.353 42.4847 168.335 42.5642 168.332 42.5776C168.331 42.5795 168.346 42.5323 168.397 42.4818C168.443 42.435 168.469 42.4376 168.415 42.4545C168.354 42.4735 168.225 42.5 168 42.5V44V45.5C168.852 45.5 169.811 45.3103 170.518 44.6031C171.254 43.8666 171.403 42.8912 171.323 42.0312L169.83 42.1699ZM168 44L168 42.5C167.522 42.5 166.717 42.52 166.017 43.0318C165.291 43.5632 164.993 44.3753 164.834 45.13C164.672 45.9042 164.594 46.9291 164.552 48.2421C164.508 49.5743 164.5 51.295 164.5 53.5H166H167.5C167.5 51.2902 167.509 49.6159 167.55 48.3391C167.592 47.0432 167.666 46.2449 167.77 45.7478C167.879 45.2312 167.965 45.3239 167.788 45.4536C167.637 45.5638 167.548 45.5 168 45.5L168 44ZM166 53.5H164.5C164.5 55.705 164.508 57.4257 164.552 58.7579C164.594 60.0709 164.672 61.0958 164.834 61.87C164.993 62.6247 165.291 63.4368 166.017 63.9682C166.717 64.48 167.522 64.5 168 64.5L168 63L168 61.5C167.548 61.5 167.637 61.4362 167.788 61.5464C167.965 61.6761 167.879 61.7688 167.77 61.2522C167.666 60.7551 167.592 59.9568 167.55 58.6609C167.509 57.3841 167.5 55.7098 167.5 53.5H166ZM168 63V64.5C168.376 64.5 168.476 64.5975 168.502 64.6232C168.552 64.6737 168.698 64.8642 168.759 65.4157L170.25 65.25L171.741 65.0843C171.635 64.1358 171.322 63.2013 170.623 62.5018C169.899 61.7775 168.956 61.5 168 61.5V63ZM170.25 65.25L168.759 65.418C168.817 65.9347 168.913 66.6957 169.366 67.3549C169.869 68.0868 170.62 68.449 171.419 68.6593C172.197 68.864 173.214 68.975 174.507 69.0548C175.82 69.1359 177.521 69.1896 179.709 69.2494L179.75 67.75L179.791 66.2506C177.594 66.1904 175.945 66.1379 174.692 66.0605C173.418 65.9819 172.654 65.8822 172.183 65.7582C171.733 65.6397 171.769 65.5551 171.838 65.6561C171.858 65.6842 171.802 65.6303 171.74 65.082L170.25 65.25ZM179.75 67.75L179.709 69.2495L188.959 69.4995L189 68L189.04 66.5005L179.79 66.2505L179.75 67.75ZM189 68H190.5C190.5 66.8914 190.531 66.0848 190.599 65.4917C190.67 64.8804 190.767 64.6225 190.817 64.5309C190.834 64.4996 190.832 64.5121 190.804 64.5363C190.775 64.5608 190.755 64.5663 190.77 64.5611C190.838 64.5366 191.022 64.5 191.5 64.5L191.5 63L191.5 61.5C190.977 61.5 190.349 61.5259 189.761 61.7359C189.087 61.9766 188.547 62.4263 188.183 63.0943C187.858 63.6902 187.705 64.401 187.619 65.1491C187.531 65.9154 187.5 66.8587 187.5 68H189ZM191.5 63V64.5C191.796 64.5 192.132 64.5005 192.443 64.4753C192.757 64.4499 193.145 64.3924 193.533 64.2256C194.464 63.8259 194.911 63.0313 195.134 62.1833C195.34 61.4032 195.419 60.3547 195.459 59.0243C195.499 57.6621 195.5 55.8582 195.5 53.5H194H192.5C192.5 55.8768 192.499 57.6279 192.46 58.9348C192.42 60.2734 192.341 61.0081 192.233 61.4192C192.143 61.7625 192.12 61.5673 192.349 61.4691C192.386 61.4531 192.364 61.4719 192.201 61.4851C192.035 61.4986 191.826 61.5 191.5 61.5V63ZM194 53.5H195.5C195.5 51.1418 195.499 49.3379 195.459 47.9757C195.419 46.6453 195.34 45.5968 195.134 44.8167C194.911 43.9687 194.464 43.1741 193.533 42.7744C193.145 42.6076 192.757 42.5501 192.443 42.5247C192.132 42.4995 191.796 42.5 191.5 42.5V44V45.5C191.826 45.5 192.035 45.5014 192.201 45.5149C192.364 45.5281 192.386 45.5469 192.349 45.5309C192.12 45.4327 192.143 45.2375 192.233 45.5808C192.341 45.9919 192.42 46.7266 192.46 48.0652C192.499 49.3721 192.5 51.1232 192.5 53.5H194ZM191.5 44L191.5 42.5C191.045 42.5 190.774 42.4698 190.613 42.4314C190.469 42.3971 190.497 42.3762 190.56 42.4393C190.624 42.5024 190.603 42.531 190.568 42.3868C190.53 42.2258 190.5 41.9545 190.5 41.5H189H187.5C187.5 42.4894 187.587 43.7087 188.439 44.5606C189.291 45.4126 190.51 45.5 191.5 45.5L191.5 44ZM189 41.5H190.5C190.5 40.9839 190.519 40.1769 190.238 39.4925C189.863 38.5808 189.111 38.1133 188.274 37.8766C187.522 37.6639 186.525 37.5832 185.29 37.5427C184.022 37.5011 182.348 37.5 180.17 37.5V39V40.5C182.367 40.5 183.984 40.5014 185.192 40.5411C186.432 40.5818 187.096 40.6611 187.458 40.7634C187.735 40.8417 187.55 40.8442 187.463 40.6337C187.452 40.6058 187.471 40.6368 187.484 40.8017C187.498 40.9688 187.5 41.1791 187.5 41.5H189Z" fill="black"/>
</svg>
